<svg width="1148" height="172" xmlns="http://www.w3.org/2000/svg" xmlns:xlink="http://www.w3.org/1999/xlink" overflow="hidden"><g transform="translate(-87 -339)"><rect x="605" y="390" width="115" height="9" fill="#BFBFBF" fill-opacity="0.811765"/><rect x="605" y="412" width="115" height="9" fill="#BFBFBF" fill-opacity="0.811765"/><path d="M250.939 368.085C251.46 367.455 251.578 365.937 252.463 365.497 253.347 365.057 254.405 365.475 254.96 365.447 255.516 365.418 255.311 365.217 255.597 365.175 255.883 365.133 256.328 365.027 256.676 365.194 257.024 365.362 257.527 366.159 257.884 366.332 258.241 366.504 258.461 366.623 258.818 366.583 259.175 366.543 259.546 365.99 260.025 366.09 260.504 366.191 261.111 366.648 261.692 366.834 262.274 367.02 263.011 367.181 263.515 367.206 264.019 367.231 264.344 366.732 264.715 366.633 265.087 366.534 265.496 366.772 265.744 366.613 265.992 366.454 265.961 366.236 266.202 366.03 266.444 365.824 266.857 365.892 267.193 365.627 267.53 365.363 268.124 364.826 268.223 364.44 268.322 364.055 268.317 363.733 268.184 363.314 268.052 362.895 267.545 362.278 267.43 361.926 267.314 361.574 267.595 361.695 267.689 361.404 267.783 361.112 267.647 360.353 267.994 360.177 268.341 360.001 269.17 360.282 269.77 360.498 270.37 360.715 270.917 361.37 271.592 361.473 272.506 361.681 273.322 361.014 273.823 360.971 274.323 360.927 274.396 361.389 274.595 361.213 275.657 361.244 274.835 360.659 274.665 360.367 274.495 360.075 273.854 359.742 273.575 359.462 273.296 359.182 273.568 359.043 273.388 358.688 273.208 358.333 272.503 357.714 272.496 357.331 272.489 356.947 272.644 356.578 272.949 356.385 273.255 356.193 273.604 355.832 274.032 355.822 274.46 355.812 275.131 356.082 275.519 356.325 275.907 356.568 275.98 357.272 276.312 357.532 276.643 357.792 277.31 358.102 277.509 357.884 277.707 357.666 276.685 356.467 276.609 355.923 276.534 355.378 276.568 354.49 276.758 354.112 276.948 353.735 277.693 353.806 277.848 353.459 278.003 353.112 277.761 352.676 277.984 352.534 278.207 352.391 278.492 352.748 279.186 352.755 279.88 352.761 281.024 353.211 281.701 353.378 282.378 353.546 282.789 353.103 283.299 353.258 283.81 353.412 284.21 354.756 284.665 354.957 285.119 355.158 285.113 354.362 285.48 354.112 285.847 353.863 286.44 353.16 286.867 353.006 287.295 352.852 287.714 352.986 288.044 353.187 288.375 353.388 288.55 354.344 288.899 354.615 289.248 354.887 289.975 354.585 290.386 354.666 290.797 354.746 291.152 354.858 291.365 355.098 292.034 355.567 291.091 355.06 291.414 356.255 291.745 356.783 291.991 356.259 292.306 357.26 292.662 357.587 291.941 357.935 292.108 358.769 292.275 359.603 293.148 359.537 293.356 359.951 293.565 360.365 293.477 360.997 293.359 361.253 293.242 361.508 292.521 361.501 292.505 361.736 292.488 361.97 292.746 362.138 292.963 362.359 293.18 362.58 293.783 362.54 293.954 362.812 294.126 363.083 294.29 363.309 294.141 363.736 293.992 364.164 293.054 365.056 292.913 365.527 292.773 365.998 292.992 366.37 293.298 366.563 293.603 366.756 294.284 366.777 294.747 366.834 295.21 366.891 295.545 366.653 296.074 366.904 296.602 367.156 297.506 367.773 297.919 368.192 298.332 368.611 298.074 369.231 298.552 369.418 299.029 369.606 299.929 369.179 300.435 369.318 300.94 369.457 301.222 370.254 301.487 370.505 301.751 370.756 301.822 370.843 302.021 370.826 302.219 370.809 302.676 370.932 302.924 370.807 303.172 370.681 303.138 370.059 303.507 370.072 303.877 370.085 304.72 370.25 304.894 370.485 305.067 370.72 305.349 371.146 305.242 371.681 305.134 372.216 304.232 373.143 304.251 373.692 304.269 374.242 304.873 374.871 305.154 375.181 305.435 375.491 305.698 375.114 305.936 375.553 306.173 375.992 306.38 377.325 306.778 377.615 307.176 377.905 307.719 376.935 308.226 376.992 308.734 377.048 309.577 377.34 309.924 377.6 310.271 377.86 310.69 378.09 310.803 378.4 310.917 378.709 310.318 379.561 310.159 379.707 310.149 380.004 310.431 380.058 310.743 380.179 310.982 380.254 311.307 379.757 311.596 379.757 311.885 379.757 312.271 380.028 312.477 380.179 312.684 380.33 312.858 380.64 312.835 381.065 312.812 381.489 312.265 382.129 312.141 382.523 312.018 382.917 312.067 382.992 312.092 383.428 312.117 383.864 312.346 384.923 312.488 385.339 312.631 385.754 312.831 385.587 312.947 385.922 313.062 386.257 313.054 386.631 313.232 386.998 313.409 387.365 313.924 387.224 314.013 388.124 314.102 389.024 313.493 390.663 313.914 391.996 314.335 393.328 315.506 395.309 315.5 396.27 315.494 397.23 313.876 396.525 313.48 396.854 313.083 397.182 313.31 397.814 313.12 398.242 312.93 398.669 312.965 399.599 312.736 400.323 312.507 401.047 311.433 401.569 311.101 402.234 310.769 402.899 310.908 403.863 310.743 404.315 310.577 404.768 309.961 404.187 309.713 404.447 309.465 404.706 309.646 405.477 309.256 405.874 308.866 406.271 308.005 406.451 307.769 407.332 307.534 408.214 307.999 410.125 307.644 410.863 307.289 411.6 306.856 411.633 306.282 411.506 305.709 411.378 304.565 410.161 304.201 410.098 303.837 410.035 304.026 410.827 304.096 411.128 304.166 411.43 304.857 411.661 304.622 411.908 304.388 412.156 306.419 411.736 306.53 412.964 306.084 414.305 305.486 414.011 305.403 414.372 305.32 414.733 306.075 414.445 306.628 414.755 307.182 415.065 307.135 416.447 306.679 416.459 306.223 416.471 304.771 416.048 304.3 415.73 303.829 415.411 304.166 416.881 304.003 416.886 303.839 416.891 303.419 416.783 303.271 417.118 303.122 417.453 302.219 417.632 302.07 417.993 301.921 418.353 302.453 418.52 302.28 418.677 302.106 418.834 302.052 419.665 302.218 419.99 302.384 420.314 302.984 420.063 303.349 420.247 303.715 420.43 303.926 421.114 303.89 421.392 303.855 421.67 303.326 422.334 303.061 422.292 302.797 422.25 302.788 423.341 301.016 422.825 299.244 422.31 299.028 421.765 298.304 421.688 297.579 421.612 296.9 421.42 297.114 421.99 297.329 422.56 296.829 421.915 297.028 422.468 297.226 423.021 297.156 422.208 297.659 422.644 298.163 423.08 298.072 422.384 298.304 423.272 298.535 424.161 299.254 423.365 299.047 424.177 298.841 424.99 298.207 424.428 297.994 425.196 297.744 425.926 298.169 425.645 298.427 425.792 298.685 425.94 298.389 426.731 297.943 426.823 297.497 426.915 296.643 426.856 296.531 427.024 296.42 427.192 296.738 427.569 297.274 427.829 297.811 428.088 298.722 427.582 299.306 427.728 299.891 427.874 300.418 428.41 300.782 428.703 301.145 428.996 301.388 429.597 301.635 430.192 301.883 430.787 302.766 431.801 302.665 432.323 302.564 432.846 301.938 433.103 301.475 433.178 301.013 433.254 300.648 433.223 300.236 433.128 299.825 433.033 299.595 432.719 299.232 432.492 298.868 432.266 299.02 433.502 298.713 433.681 298.405 433.86 297.552 432.784 297.362 433.279 297.172 433.773 296.84 434.129 296.569 434.385 296.299 434.642 296.102 434.877 295.738 435.019 295.375 435.162 294.87 434.812 294.389 435.24 293.908 435.668 293.287 437.14 292.852 437.388 292.416 437.636 292.096 437.43 291.724 437.181 291.352 436.932 290.988 436.276 290.622 435.894 290.257 435.511 290.11 434.611 289.582 434.435 289.053 434.259 287.92 434.715 287.451 434.838 286.982 434.96 286.923 434.545 286.669 434.667 286.415 434.79 286.266 435.544 285.926 435.572 285.585 435.601 285.388 435.53 284.725 435.341 284.062 435.151 282.477 434.263 281.95 434.083 281.423 433.904 281.414 433.556 281.267 433.611 281.121 433.667 281.367 434.407 281.267 434.667 281.168 434.927 280.906 435.041 280.673 435.17 280.44 435.299 279.97 435.27 279.67 435.19 279.371 435.109 279.076 434.393 278.679 434.234 278.283 434.075 277.787 434.637 277.292 434.234 276.796 433.832 276.034 432.419 275.458 432.273 274.882 432.127 274.321 433.393 273.933 433.662 273.545 433.93 273.478 433.795 273.129 433.882 272.78 433.969 272.154 433.815 271.741 433.882 271.328 433.949 271.171 434.268 270.651 434.285 270.131 434.301 269.453 434.578 268.669 434.335 267.884 434.092 266.034 432.474 265.348 432.374 264.663 432.273 264.481 432.298 264.109 432.625 263.738 432.952 263.909 434.154 263.763 434.536 263.616 434.918 263.642 435.101 263.229 435.17 262.816 435.239 261.953 434.907 261.284 434.949 260.615 434.991 259.733 435.418 259.215 435.17 258.696 434.922 258.457 433.784 258.174 433.46 257.891 433.137 257.956 432.826 257.865 432.223 257.215 431.38 257.744 430.385 257.678 429.89 257.612 429.396 257.543 429.323 257.469 429.256 257.394 429.189 257.204 429.432 256.935 429.488 256.666 429.544 256.14 429.616 255.857 429.594 255.574 429.572 255.274 429.391 255.189 429.156 255.104 428.92 255.009 428.578 255.101 428.181 255.194 427.783 255.756 427.096 255.746 426.773 255.735 426.449 255.587 425.959 255.288 426.239 254.989 426.519 254.115 428.318 253.554 428.703 252.992 429.089 252.207 428.837 251.918 428.552 251.629 428.267 251.52 427.407 251.472 426.993 251.425 426.579 251.343 426.429 251.385 426.069 251.426 425.708 251.821 425.029 251.72 424.831 251.619 424.633 251.388 425.168 251.026 424.881 250.664 424.595 249.488 424.253 249.102 423.864 248.715 423.475 248.766 423.036 248.709 422.549 248.651 422.061 248.768 421.397 248.758 420.94 248.748 420.482 248.996 420.286 248.796 419.803 248.596 419.32 248.01 418.457 247.706 418.043 247.402 417.629 246.891 417.587 246.528 417.37 246.165 417.152 245.99 416.607 245.526 416.735 245.061 416.864 244.7 417.791 244.187 418.093 243.675 418.395 243.039 418.671 242.453 418.546 241.867 418.42 240.71 417.515 240.322 417.087 239.934 416.66 239.323 416.417 239.331 415.931 239.339 415.445 240.487 414.607 240.372 414.171 240.256 413.735 239.678 413.216 239.43 413.366 239.182 413.517 238.48 414.121 238.29 414.573 238.1 415.026 238.261 415.882 237.844 416.233 237.428 416.583 236.797 417.199 236.386 417.179 235.975 417.159 235.529 416.642 235.378 416.163 235.226 415.683 235.535 414.922 235.477 414.302 235.419 413.682 235.578 412.79 235.477 412.241 235.376 411.691 235.127 411.288 235.019 410.953 234.703 409.845 234.915 410.422 234.486 410.229 234.223 410.075 233.538 410.553 233.197 410.481 232.857 410.409 232.839 409.922 232.442 409.796 232.046 409.671 231.484 409.539 231.066 409.274 230.648 409.009 230.068 408.314 230.132 407.755 230.196 407.197 231.395 406.325 231.6 405.774 231.805 405.222 231.124 405.352 230.967 405.1 230.81 404.849 230.65 404.55 230.658 404.265 230.667 403.98 231.108 403.535 231.215 403.19 231.322 402.844 231.114 402.568 231.302 402.194 231.49 401.82 231.937 401.292 231.996 400.997 232.056 400.702 232.014 400.469 231.661 400.273 231.308 400.077 230.175 400.169 229.877 399.82 229.579 399.472 229.384 398.964 229.577 398.433 229.77 397.901 230.968 396.879 231.232 396.381 231.497 395.883 231.49 395.577 231.364 395.194 231.237 394.812 230.663 394.789 230.472 394.088 230.28 393.387 229.917 391.909 230.014 391.242 230.111 390.574 231.077 390.361 231.352 389.733 231.628 389.105 231.288 387.831 231.668 387.471 232.048 387.111 232.561 387.068 233.136 386.917 233.711 386.766 233.646 386.216 234.276 386.062 234.906 385.908 236.253 386.453 236.964 386.445 237.674 386.437 238.133 385.853 238.538 386.012 238.943 386.171 239.084 387.043 239.342 386.948 239.6 386.852 239.697 385.699 240.086 385.439 240.474 385.179 241.064 384.631 241.374 384.434 241.684 384.236 241.757 384.655 242.145 384.253 242.533 383.85 242.834 383.059 243.158 382.724 243.482 382.389 243.942 382.263 243.89 381.939 243.839 381.615 243.056 381.327 242.899 380.984 242.742 380.64 242.693 380.196 242.949 379.877 243.205 379.559 244.311 379.123 244.832 378.62 245.352 378.117 244.871 376.989 245.129 376.458 245.387 375.927 246.28 375.877 246.627 375.584 246.974 375.29 247.13 375.08 247.21 374.698 247.291 374.316 246.903 373.645 246.864 373.139 246.824 372.633 247.387 372.176 247.47 371.712 247.552 371.248 246.964 370.751 247.358 370.354 247.753 369.957 248.917 369.723 249.34 369.278 249.764 368.833 250.419 368.716 250.939 368.085Z" stroke="#000000" stroke-width="0.4" stroke-linejoin="round" stroke-miterlimit="10" fill="#FFFFFF" fill-rule="evenodd"/><path d="M134.285 475.232 150.892 475.232 150.892 476.466 134.285 476.466ZM116.436 463.162 124.795 463.162C124.689 468.215 122.005 472.245 116.742 475.251L115.656 474.128C116.924 473.609 118.141 472.834 119.307 471.804 120.473 470.774 121.384 469.647 122.039 468.423L116.13 469.016 115.638 467.699 122.596 467.263C122.961 466.329 123.199 465.373 123.31 464.396L116.436 464.396ZM141.865 463.014 143.294 463.014 143.294 463.96C143.294 465.08 143.923 466.25 145.182 467.472 146.44 468.693 148.109 469.536 150.187 470L149.203 471.104C147.75 470.652 146.394 469.956 145.135 469.016 143.877 468.076 143.021 467.145 142.57 466.224 142.125 467.176 141.268 468.133 140 469.095 138.732 470.057 137.378 470.733 135.937 471.122L134.99 470.018C137.093 469.579 138.765 468.735 140.005 467.486 141.245 466.236 141.865 465.061 141.865 463.96ZM127.819 461.567 129.201 461.567 129.201 468.942 132.411 468.942 132.411 470.176 129.201 470.176 129.201 479.463 127.819 479.463Z" stroke="#404040" stroke-linejoin="round" stroke-miterlimit="10" stroke-opacity="0" fill-rule="evenodd"/><text fill="#000000" fill-opacity="0" font-family="Arial,Arial_MSFontService,sans-serif" font-size="17.896" x="115.638" y="477.226">카스</text><path d="M156.691 465.519C155.949 465.519 155.303 465.822 154.752 466.428 154.202 467.034 153.927 467.82 153.927 468.784 153.927 469.65 154.188 470.354 154.711 470.895 155.233 471.436 155.878 471.707 156.645 471.707 157.418 471.707 158.054 471.436 158.552 470.895 159.049 470.354 159.298 469.604 159.298 468.645 159.298 467.687 159.043 466.926 158.533 466.363 158.023 465.8 157.409 465.519 156.691 465.519ZM156.487 464.136C157.372 464.136 158.18 464.375 158.913 464.851 159.646 465.327 160.203 466.006 160.583 466.887 160.964 467.768 161.154 469.044 161.154 470.714 161.154 472.452 160.965 473.836 160.588 474.866 160.211 475.895 159.649 476.679 158.904 477.217 158.159 477.756 157.285 478.025 156.283 478.025 155.219 478.025 154.35 477.729 153.676 477.139 153.002 476.548 152.597 475.718 152.461 474.648L154.066 474.499C154.202 475.254 154.462 475.801 154.845 476.141 155.229 476.481 155.72 476.652 156.32 476.652 156.834 476.652 157.284 476.534 157.67 476.299 158.057 476.064 158.374 475.75 158.621 475.357 158.868 474.965 159.076 474.434 159.243 473.766 159.41 473.098 159.493 472.418 159.493 471.725 159.493 471.651 159.49 471.54 159.484 471.391 159.15 471.923 158.694 472.355 158.115 472.685 157.537 473.016 156.911 473.182 156.237 473.182 155.111 473.182 154.159 472.774 153.379 471.957 152.6 471.141 152.21 470.065 152.21 468.729 152.21 467.349 152.617 466.239 153.43 465.398 154.244 464.557 155.263 464.136 156.487 464.136Z" stroke="#404040" stroke-linejoin="round" stroke-miterlimit="10" stroke-opacity="0" fill-rule="evenodd"/><text fill="#000000" fill-opacity="0" font-family="Arial,Arial_MSFontService,sans-serif" font-size="13.8882" x="152.21" y="476.289">9</text><path d="M171.254 473.098 172.637 473.098 172.637 477.681 182.638 477.681 182.638 478.915 171.254 478.915ZM190.616 472.755 202.315 472.755 202.315 479.463 200.933 479.463 200.933 473.989 190.616 473.989ZM208.959 471.466 219.981 471.466 219.981 475.817 210.323 475.817 210.323 477.811 220.473 477.811 220.473 479.045 208.959 479.045 208.959 474.62 218.608 474.62 218.608 472.699 208.959 472.699ZM189.549 466.845 189.549 469.545 194.151 469.545 194.151 466.845ZM169.445 462.708 177.869 462.708 177.869 463.942 170.837 463.942 170.837 469.758C174.647 469.758 177.173 469.7 178.417 469.582L178.509 470.779C177.328 470.921 174.307 470.992 169.445 470.992ZM188.186 462.327 189.549 462.327 189.549 465.612 194.151 465.612 194.151 462.327 195.515 462.327 195.515 470.779 188.186 470.779ZM206.529 462.179 215.927 462.179 215.927 463.413 211.863 463.413 211.863 463.728C211.863 464.817 212.315 465.837 213.218 466.79 214.121 467.742 215.197 468.419 216.446 468.821L215.509 469.888C214.52 469.431 213.621 468.863 212.814 468.186 212.007 467.509 211.474 466.873 211.214 466.279 210.868 467.003 210.264 467.761 209.405 468.552 208.545 469.344 207.698 469.941 206.863 470.343L205.879 469.415C207.296 468.76 208.426 467.928 209.27 466.92 210.115 465.911 210.537 464.848 210.537 463.728L210.537 463.413 206.529 463.413ZM218.589 461.567 219.981 461.567 219.981 470.519 218.589 470.519ZM200.933 461.567 202.315 461.567 202.315 471.772 200.933 471.772 200.933 467.588 198.864 467.588 198.864 471.772 197.491 471.772 197.491 461.928 198.864 461.928 198.864 466.335 200.933 466.335ZM180.754 461.567 182.137 461.567 182.137 467.152 184.836 467.152 184.836 468.385 182.137 468.385 182.137 474.638 180.754 474.638Z" stroke="#404040" stroke-linejoin="round" stroke-miterlimit="10" stroke-opacity="0" fill-rule="evenodd"/><text fill="#000000" fill-opacity="0" font-family="Arial,Arial_MSFontService,sans-serif" font-size="17.896" x="169.445" y="477.226">단백질</text><path d="M228.051 472.198 238.618 472.198 238.618 473.544 228.051 473.544Z" stroke="#404040" stroke-linejoin="round" stroke-miterlimit="10" stroke-opacity="0" fill-rule="evenodd"/><text fill="#000000" fill-opacity="0" font-family="Arial,Arial_MSFontService,sans-serif" font-size="1.34521" x="228.051" y="473.375">–</text><path d="M281.785 475.13 298.392 475.13 298.392 476.364 281.785 476.364ZM269.37 463.979C268.418 463.979 267.645 464.422 267.051 465.31 266.457 466.198 266.16 467.374 266.16 468.84 266.16 470.3 266.46 471.476 267.06 472.37 267.66 473.264 268.43 473.711 269.37 473.711 270.304 473.711 271.073 473.262 271.676 472.365 272.279 471.469 272.58 470.293 272.58 468.84 272.58 467.368 272.285 466.19 271.694 465.305 271.104 464.421 270.329 463.979 269.37 463.979ZM284.596 463.237 295.581 463.237 295.581 464.47 285.988 464.47 285.988 470.037 295.868 470.037 295.868 471.28 284.596 471.28ZM245.945 463.162 254.304 463.162C254.168 468.24 251.484 472.263 246.251 475.232L245.184 474.11C247.058 473.336 248.737 472.084 250.222 470.352 251.706 468.62 252.572 466.635 252.82 464.396L245.945 464.396ZM269.37 462.745C270.743 462.745 271.85 463.286 272.692 464.368 273.533 465.451 273.953 466.941 273.953 468.84 273.953 470.726 273.531 472.215 272.687 473.307 271.843 474.399 270.737 474.945 269.37 474.945 268.01 474.945 266.91 474.396 266.072 473.298 265.234 472.2 264.815 470.714 264.815 468.84 264.815 466.941 265.23 465.451 266.058 464.368 266.887 463.286 267.991 462.745 269.37 462.745ZM277.275 461.567 278.666 461.567 278.666 479.463 277.275 479.463ZM257.328 461.567 258.711 461.567 258.711 468.942 261.921 468.942 261.921 470.176 258.711 470.176 258.711 479.463 257.328 479.463Z" stroke="#404040" stroke-linejoin="round" stroke-miterlimit="10" stroke-opacity="0" fill-rule="evenodd"/><text fill="#000000" fill-opacity="0" font-family="Arial,Arial_MSFontService,sans-serif" font-size="17.896" x="245.184" y="477.226">가이드</text><path d="M308.049 465.695 308.049 470.195 311.917 470.195C312.74 470.195 313.383 470.109 313.847 469.939 314.311 469.769 314.663 469.497 314.905 469.123 315.146 468.749 315.266 468.342 315.266 467.903 315.266 467.26 315.033 466.731 314.566 466.317 314.099 465.902 313.362 465.695 312.353 465.695ZM337.878 465.621C337.705 466.493 337.461 467.359 337.145 468.218L335.652 472.208 340.263 472.208 338.843 468.441C338.41 467.297 338.089 466.357 337.878 465.621ZM336.951 464.192 338.889 464.192 344.456 477.793 342.406 477.793 340.819 473.674 335.132 473.674 333.639 477.793 331.727 477.793ZM320.202 464.192 322.049 464.192 329.192 474.87 329.192 464.192 330.918 464.192 330.918 477.793 329.072 477.793 321.928 467.105 321.928 477.793 320.202 477.793ZM306.249 464.192 312.279 464.192C313.491 464.192 314.413 464.314 315.044 464.559 315.675 464.803 316.179 465.234 316.556 465.853 316.933 466.471 317.122 467.155 317.122 467.903 317.122 468.868 316.81 469.681 316.185 470.343 315.56 471.005 314.595 471.425 313.29 471.605 313.767 471.834 314.128 472.059 314.376 472.282 314.902 472.764 315.399 473.367 315.869 474.091L318.235 477.793 315.972 477.793 314.172 474.963C313.646 474.147 313.213 473.522 312.873 473.089 312.533 472.656 312.228 472.353 311.959 472.18 311.69 472.007 311.416 471.886 311.138 471.818 310.934 471.775 310.6 471.753 310.136 471.753L308.049 471.753 308.049 477.793 306.249 477.793Z" stroke="#404040" stroke-linejoin="round" stroke-miterlimit="10" stroke-opacity="0" fill-rule="evenodd"/><text fill="#000000" fill-opacity="0" font-family="Arial,Arial_MSFontService,sans-serif" font-size="13.6006" x="306.249" y="476.093">RNA</text><path d="M133.475 499.271 133.475 501.062 141.76 501.062 141.76 499.271ZM112.462 496.692 123.975 496.692 123.975 502.463 122.593 502.463 122.593 497.926 112.462 497.926ZM132.111 496.024 133.475 496.024 133.475 498.074 141.76 498.074 141.76 496.024 143.123 496.024 143.123 502.277 132.111 502.277ZM134.579 489.716C133.626 489.716 132.878 489.906 132.334 490.286 131.79 490.666 131.517 491.141 131.517 491.71 131.517 492.298 131.793 492.777 132.343 493.148 132.894 493.519 133.639 493.705 134.579 493.705 135.519 493.705 136.264 493.519 136.815 493.148 137.365 492.777 137.64 492.298 137.64 491.71 137.64 491.141 137.368 490.666 136.824 490.286 136.28 489.906 135.531 489.716 134.579 489.716ZM134.579 488.537C135.94 488.537 137.017 488.84 137.812 489.446 138.607 490.053 139.004 490.807 139.004 491.71 139.004 492.613 138.607 493.368 137.812 493.974 137.017 494.58 135.933 494.883 134.56 494.883 133.194 494.883 132.117 494.583 131.332 493.983 130.546 493.383 130.154 492.626 130.154 491.71 130.154 490.807 130.551 490.053 131.346 489.446 132.141 488.84 133.218 488.537 134.579 488.537ZM114.308 488.231 114.308 490.383 122.509 490.383 122.509 488.231ZM167.265 486.162 175.624 486.162C175.488 491.24 172.804 495.263 167.571 498.232L166.504 497.11C168.378 496.336 170.057 495.084 171.542 493.352 173.026 491.62 173.892 489.635 174.14 487.396L167.265 487.396ZM157.784 484.928 159.147 484.928 159.147 501.915 157.784 501.915 157.784 492.508 154.611 492.508 154.611 491.274 157.784 491.274ZM112.935 484.91 114.308 484.91 114.308 486.997 122.509 486.997 122.509 484.91 123.882 484.91 123.882 491.599 119.114 491.599 119.114 493.668 126.712 493.668 126.712 494.902 110.105 494.902 110.105 493.668 117.703 493.668 117.703 491.599 112.935 491.599ZM151.076 484.854 152.468 484.854 152.468 487.266 155.882 487.266 155.882 488.5 152.486 488.5 152.486 490.281C152.486 491.586 152.882 492.887 153.674 494.183 154.465 495.478 155.381 496.435 156.42 497.054L155.297 498.019C154.629 497.499 153.947 496.782 153.252 495.866 152.556 494.951 152.078 494.128 151.818 493.399 151.596 494.153 151.136 495.041 150.441 496.061 149.745 497.082 149.05 497.88 148.358 498.455L147.18 497.527C148.225 496.853 149.139 495.809 149.921 494.396 150.703 492.983 151.095 491.593 151.095 490.226L151.095 488.5 147.671 488.5 147.671 487.266 151.076 487.266ZM178.648 484.567 180.031 484.567 180.031 491.942 183.241 491.942 183.241 493.176 180.031 493.176 180.031 502.463 178.648 502.463ZM160.956 484.567 162.367 484.567 162.367 502.463 160.956 502.463ZM141.741 484.567 143.123 484.567 143.123 489.753 145.638 489.753 145.638 490.987 143.123 490.987 143.123 495.031 141.741 495.031ZM133.837 484.316 135.219 484.316 135.219 486.431 139.821 486.431 139.821 487.647 129.235 487.647 129.235 486.431 133.837 486.431Z" stroke="#404040" stroke-linejoin="round" stroke-miterlimit="10" stroke-opacity="0" fill-rule="evenodd"/><text fill="#000000" fill-opacity="0" font-family="Arial,Arial_MSFontService,sans-serif" font-size="18.1465" x="110.105" y="500.194">복합체가</text><path d="M211.982 495.894 223.625 495.894 223.625 502.463 222.242 502.463 222.242 497.128 211.982 497.128ZM195.793 494.391 195.793 498.548 200.691 498.548 200.691 494.391ZM194.216 488.407 195.579 488.407 195.811 493.176 200.673 493.176 200.904 488.407 202.268 488.407 202.046 493.176 205.005 493.176 205.005 494.391 202.083 494.391 202.083 498.548 206.545 498.548 206.545 499.781 189.939 499.781 189.939 498.548 194.401 498.548 194.401 494.391 191.479 494.391 191.479 493.176 194.438 493.176ZM191.701 486.255 204.782 486.255 204.782 487.47 191.701 487.47ZM209.774 485.364 218.986 485.364 218.986 486.598 215.052 486.598 215.052 487.211C215.052 488.386 215.496 489.514 216.384 490.597 217.271 491.679 218.318 492.468 219.524 492.963L218.587 493.974C217.777 493.535 216.962 492.927 216.143 492.151 215.323 491.375 214.752 490.646 214.431 489.966 214.097 490.727 213.516 491.546 212.687 492.424 211.858 493.303 211.02 493.971 210.173 494.428L209.189 493.482C210.494 492.851 211.573 491.962 212.427 490.815 213.28 489.668 213.707 488.466 213.707 487.211L213.707 486.598 209.774 486.598ZM222.242 484.567 223.625 484.567 223.625 494.883 222.242 494.883 222.242 489.845 217.966 489.845 217.966 488.593 222.242 488.593Z" stroke="#404040" stroke-linejoin="round" stroke-miterlimit="10" stroke-opacity="0" fill-rule="evenodd"/><text fill="#000000" fill-opacity="0" font-family="Arial,Arial_MSFontService,sans-serif" font-size="17.896" x="189.939" y="500.226">표적</text><path d="M255.085 496.024 256.476 496.024 256.476 500.663 266.579 500.663 266.579 501.878 255.085 501.878ZM232.439 494.577 249.045 494.577 249.045 495.829 244.564 495.829 244.564 502.444 243.173 502.444 243.173 495.829 238.311 495.829 238.311 502.444 236.92 502.444 236.92 495.829 232.439 495.829ZM293.059 487.016C292.224 487.016 291.587 487.427 291.148 488.25 290.709 489.072 290.489 490.269 290.489 491.84 290.489 493.411 290.709 494.609 291.148 495.435 291.587 496.261 292.224 496.674 293.059 496.674 293.888 496.674 294.522 496.259 294.961 495.43 295.4 494.602 295.619 493.405 295.619 491.84 295.619 490.275 295.4 489.08 294.961 488.254 294.522 487.429 293.888 487.016 293.059 487.016ZM270.218 486.125 279.449 486.125 279.449 487.359 275.552 487.359 275.552 489.15C275.552 490.603 276.001 492.075 276.898 493.566 277.794 495.056 278.868 496.219 280.117 497.054L279.152 498.093C278.268 497.419 277.409 496.525 276.578 495.412 275.746 494.299 275.191 493.3 274.912 492.415 274.671 493.263 274.142 494.264 273.326 495.421 272.509 496.578 271.606 497.552 270.617 498.343L269.55 497.425C270.855 496.565 271.954 495.348 272.848 493.774 273.742 492.2 274.189 490.69 274.189 489.242L274.189 487.359 270.218 487.359ZM240.742 486.014C239.381 486.014 238.322 486.254 237.564 486.733 236.807 487.212 236.428 487.863 236.428 488.686 236.428 489.496 236.807 490.142 237.564 490.625 238.322 491.107 239.381 491.348 240.742 491.348 242.103 491.348 243.162 491.107 243.919 490.625 244.677 490.142 245.056 489.496 245.056 488.686 245.056 487.863 244.677 487.212 243.919 486.733 243.162 486.254 242.103 486.014 240.742 486.014ZM252.274 485.531 261.486 485.531 261.486 486.793 257.599 486.793 257.599 487.452C257.599 488.639 258.06 489.835 258.981 491.038 259.903 492.241 260.936 493.111 262.08 493.649L261.152 494.651C260.268 494.107 259.431 493.406 258.643 492.55 257.854 491.693 257.296 490.912 256.968 490.207 256.622 491.03 256.025 491.937 255.177 492.93 254.33 493.923 253.495 494.651 252.673 495.115L251.671 494.159C252.945 493.516 254.026 492.562 254.913 491.297 255.801 490.033 256.244 488.751 256.244 487.452L256.244 486.793 252.274 486.793ZM299.117 484.928 300.508 484.928 300.508 501.915 299.117 501.915 299.117 492.415 296.974 492.415C296.906 494.178 296.535 495.537 295.861 496.493 295.186 497.448 294.252 497.926 293.059 497.926 291.803 497.926 290.837 497.402 290.16 496.353 289.482 495.305 289.144 493.801 289.144 491.84 289.144 489.879 289.485 488.376 290.169 487.331 290.852 486.286 291.816 485.763 293.059 485.763 294.246 485.763 295.176 486.23 295.847 487.164 296.518 488.098 296.887 489.437 296.955 491.181L299.117 491.181ZM240.742 484.817C242.579 484.817 244.004 485.17 245.019 485.875 246.033 486.58 246.54 487.517 246.54 488.686 246.54 489.861 246.033 490.795 245.019 491.487 244.004 492.18 242.579 492.527 240.742 492.527 238.917 492.527 237.501 492.183 236.493 491.497 235.485 490.81 234.981 489.873 234.981 488.686 234.981 487.517 235.491 486.58 236.511 485.875 237.532 485.17 238.942 484.817 240.742 484.817ZM302.327 484.567 303.718 484.567 303.718 502.463 302.327 502.463ZM281.982 484.567 283.364 484.567 283.364 491.84 286.463 491.84 286.463 493.074 283.364 493.074 283.364 502.463 281.982 502.463ZM264.724 484.567 266.106 484.567 266.106 497.295 264.724 497.295 264.724 490.328 260.54 490.328 260.54 489.085 264.724 489.085Z" stroke="#404040" stroke-linejoin="round" stroke-miterlimit="10" stroke-opacity="0" fill-rule="evenodd"/><text fill="#000000" fill-opacity="0" font-family="Arial,Arial_MSFontService,sans-serif" font-size="17.896" x="232.439" y="500.226">유전자에</text><path d="M335.642 499.271 335.642 501.062 343.926 501.062 343.926 499.271ZM334.278 496.024 335.642 496.024 335.642 498.074 343.926 498.074 343.926 496.024 345.29 496.024 345.29 502.277 334.278 502.277ZM316.187 494.864 327.153 494.864 327.153 499.049 317.569 499.049 317.569 501.062 327.645 501.062 327.645 502.258 316.187 502.258 316.187 497.87 325.761 497.87 325.761 496.043 316.187 496.043ZM336.746 489.716C335.793 489.716 335.045 489.906 334.501 490.286 333.956 490.666 333.684 491.141 333.684 491.71 333.684 492.298 333.959 492.777 334.51 493.148 335.06 493.519 335.806 493.705 336.746 493.705 337.686 493.705 338.431 493.519 338.981 493.148 339.532 492.777 339.807 492.298 339.807 491.71 339.807 491.141 339.535 490.666 338.991 490.286 338.446 489.906 337.698 489.716 336.746 489.716ZM336.746 488.537C338.106 488.537 339.184 488.84 339.979 489.446 340.774 490.053 341.171 490.807 341.171 491.71 341.171 492.613 340.774 493.368 339.979 493.974 339.184 494.58 338.1 494.883 336.727 494.883 335.36 494.883 334.284 494.583 333.499 493.983 332.713 493.383 332.32 492.626 332.32 491.71 332.32 490.807 332.718 490.053 333.512 489.446 334.307 488.84 335.385 488.537 336.746 488.537ZM313.868 485.327 321.791 485.327C321.58 487.399 320.77 489.245 319.36 490.866 317.95 492.486 316.051 493.764 313.664 494.697L312.708 493.593C314.786 492.895 316.456 491.925 317.718 490.685 318.98 489.445 319.799 488.064 320.176 486.543L313.868 486.543ZM343.908 484.567 345.29 484.567 345.29 489.753 347.804 489.753 347.804 490.987 345.29 490.987 345.29 495.031 343.908 495.031ZM325.761 484.567 327.153 484.567 327.153 493.881 325.761 493.881 325.761 492.091 321.902 492.091 321.902 490.894 325.761 490.894 325.761 488.407 322.189 488.407 322.189 487.192 325.761 487.192ZM336.003 484.316 337.386 484.316 337.386 486.431 341.987 486.431 341.987 487.647 331.402 487.647 331.402 486.431 336.003 486.431Z" stroke="#404040" stroke-linejoin="round" stroke-miterlimit="10" stroke-opacity="0" fill-rule="evenodd"/><text fill="#000000" fill-opacity="0" font-family="Arial,Arial_MSFontService,sans-serif" font-size="17.9609" x="312.708" y="500.032">결합</text><path d="M238.586 426.152C237.681 426.727 236.776 427.302 244.508 427.138 252.239 426.974 274.612 425.33 284.976 425.166 295.34 425.002 301.262 422.866 306.69 426.152 312.119 429.438 313.929 442.089 317.548 444.882 321.167 447.675 326.431 444.553 328.405 442.91 330.379 441.268 331.531 438.474 329.392 435.024 327.253 431.574 318.37 426.645 315.574 422.209 312.777 417.773 309.323 410.051 312.613 408.408 315.903 406.765 329.557 413.994 335.314 412.351 341.072 410.708 350.942 401.671 347.159 398.55 343.375 395.428 317.219 397.235 312.613 393.621 308.007 390.006 314.422 380.97 319.522 376.862 324.621 372.755 343.375 373.412 343.211 368.976 343.046 364.54 325.115 347.781 318.535 350.246 311.955 352.71 307.842 368.237 303.729 383.763" stroke="#404040" stroke-width="2" stroke-linejoin="round" stroke-miterlimit="10" fill="none" fill-rule="evenodd"/><rect x="108" y="390" width="236" height="9" fill="#BFBFBF" fill-opacity="0.811765"/><rect x="109" y="412" width="235" height="9" fill="#BFBFBF" fill-opacity="0.811765"/><path d="M262.026 389.35 264.276 389.35 268.964 396.998 268.964 389.35 271.112 389.35 271.112 400.803 268.792 400.803 264.175 393.334 264.175 400.803 262.026 400.803ZM291.292 389.154C292.714 389.154 293.824 389.452 294.624 390.049 295.423 390.645 295.938 391.469 296.167 392.521L293.87 392.951C293.709 392.389 293.405 391.945 292.96 391.619 292.515 391.294 291.959 391.131 291.292 391.131 290.281 391.131 289.478 391.451 288.882 392.092 288.285 392.732 287.987 393.683 287.987 394.943 287.987 396.303 288.289 397.322 288.893 398.002 289.498 398.682 290.289 399.021 291.268 399.021 291.753 399.021 292.238 398.926 292.725 398.736 293.212 398.546 293.63 398.316 293.979 398.045L293.979 396.592 291.331 396.592 291.331 394.662 296.315 394.662 296.315 399.225C295.831 399.693 295.129 400.106 294.21 400.463 293.291 400.82 292.36 400.998 291.417 400.998 290.219 400.998 289.175 400.747 288.284 400.244 287.393 399.742 286.724 399.023 286.276 398.088 285.828 397.153 285.604 396.136 285.604 395.037 285.604 393.844 285.854 392.785 286.354 391.857 286.854 390.93 287.586 390.219 288.55 389.725 289.284 389.344 290.198 389.154 291.292 389.154ZM279.292 389.154C280.714 389.154 281.824 389.452 282.624 390.049 283.423 390.645 283.938 391.469 284.167 392.521L281.87 392.951C281.709 392.389 281.405 391.945 280.96 391.619 280.515 391.294 279.959 391.131 279.292 391.131 278.281 391.131 277.478 391.451 276.882 392.092 276.285 392.732 275.987 393.683 275.987 394.943 275.987 396.303 276.289 397.322 276.893 398.002 277.498 398.682 278.289 399.021 279.268 399.021 279.753 399.021 280.238 398.926 280.725 398.736 281.212 398.546 281.63 398.316 281.979 398.045L281.979 396.592 279.331 396.592 279.331 394.662 284.315 394.662 284.315 399.225C283.831 399.693 283.129 400.106 282.21 400.463 281.291 400.82 280.36 400.998 279.417 400.998 278.219 400.998 277.175 400.747 276.284 400.244 275.393 399.742 274.724 399.023 274.276 398.088 273.828 397.153 273.604 396.136 273.604 395.037 273.604 393.844 273.854 392.785 274.354 391.857 274.854 390.93 275.586 390.219 276.55 389.725 277.284 389.344 278.198 389.154 279.292 389.154Z" stroke="#404040" stroke-linejoin="round" stroke-miterlimit="10" stroke-opacity="0" fill-rule="evenodd"/><text fill="#000000" fill-opacity="0" font-family="Arial,Arial_MSFontService,sans-serif" font-size="11.8438" x="262.026" y="399.518">NGG</text><path d="M387.5 399 436.983 399 436.983 400 387.5 400ZM435.65 395.5 443.65 399.5 435.65 403.5Z" fill="#003E5C"/><path d="M507.804 472.894 519.447 472.894 519.447 479.463 518.065 479.463 518.065 474.128 507.804 474.128ZM491.615 471.391 491.615 475.548 496.514 475.548 496.514 471.391ZM490.038 465.407 491.402 465.407 491.634 470.176 496.495 470.176 496.727 465.407 498.091 465.407 497.868 470.176 500.828 470.176 500.828 471.391 497.905 471.391 497.905 475.548 502.368 475.548 502.368 476.781 485.761 476.781 485.761 475.548 490.224 475.548 490.224 471.391 487.301 471.391 487.301 470.176 490.261 470.176ZM487.524 463.255 500.605 463.255 500.605 464.47 487.524 464.47ZM505.596 462.364 514.809 462.364 514.809 463.598 510.875 463.598 510.875 464.211C510.875 465.386 511.319 466.514 512.206 467.597 513.094 468.679 514.141 469.468 515.347 469.963L514.41 470.974C513.599 470.535 512.785 469.927 511.965 469.151 511.146 468.375 510.575 467.646 510.253 466.966 509.919 467.727 509.338 468.546 508.509 469.424 507.681 470.303 506.842 470.971 505.995 471.428L505.012 470.482C506.317 469.851 507.396 468.962 508.25 467.815 509.103 466.668 509.53 465.466 509.53 464.211L509.53 463.598 505.596 463.598ZM518.065 461.567 519.447 461.567 519.447 471.883 518.065 471.883 518.065 466.845 513.788 466.845 513.788 465.593 518.065 465.593Z" stroke="#404040" stroke-linejoin="round" stroke-miterlimit="10" stroke-opacity="0" fill-rule="evenodd"/><text fill="#000000" fill-opacity="0" font-family="Arial,Arial_MSFontService,sans-serif" font-size="17.896" x="485.761" y="477.226">표적</text><path d="M550.907 473.024 552.299 473.024 552.299 477.663 562.402 477.663 562.402 478.878 550.907 478.878ZM528.261 471.577 544.868 471.577 544.868 472.829 540.387 472.829 540.387 479.444 538.995 479.444 538.995 472.829 534.134 472.829 534.134 479.444 532.742 479.444 532.742 472.829 528.261 472.829ZM585.421 463.162 593.78 463.162C593.644 468.24 590.959 472.263 585.727 475.232L584.66 474.11C586.534 473.336 588.213 472.084 589.698 470.352 591.182 468.62 592.048 466.635 592.295 464.396L585.421 464.396ZM536.564 463.014C535.204 463.014 534.145 463.254 533.387 463.733 532.629 464.212 532.25 464.863 532.25 465.686 532.25 466.496 532.629 467.142 533.387 467.625 534.145 468.107 535.204 468.348 536.564 468.348 537.925 468.348 538.984 468.107 539.742 467.625 540.5 467.142 540.878 466.496 540.878 465.686 540.878 464.863 540.5 464.212 539.742 463.733 538.984 463.254 537.925 463.014 536.564 463.014ZM548.096 462.531 557.309 462.531 557.309 463.793 553.421 463.793 553.421 464.452C553.421 465.639 553.882 466.835 554.804 468.038 555.725 469.241 556.758 470.111 557.902 470.649L556.975 471.651C556.09 471.107 555.254 470.406 554.465 469.55 553.677 468.693 553.118 467.912 552.791 467.207 552.444 468.03 551.847 468.937 551 469.93 550.153 470.923 549.318 471.651 548.495 472.115L547.493 471.159C548.767 470.516 549.848 469.562 550.736 468.297 551.623 467.033 552.067 465.751 552.067 464.452L552.067 463.793 548.096 463.793ZM575.939 461.928 577.303 461.928 577.303 478.915 575.939 478.915 575.939 469.508 572.767 469.508 572.767 468.274 575.939 468.274ZM569.232 461.854 570.624 461.854 570.624 464.266 574.038 464.266 574.038 465.5 570.642 465.5 570.642 467.281C570.642 468.586 571.038 469.887 571.83 471.183 572.621 472.478 573.537 473.435 574.576 474.054L573.453 475.019C572.785 474.499 572.103 473.782 571.407 472.866 570.712 471.951 570.234 471.128 569.974 470.399 569.751 471.153 569.292 472.041 568.596 473.061 567.901 474.082 567.206 474.88 566.514 475.455L565.335 474.527C566.381 473.853 567.294 472.809 568.077 471.396 568.859 469.983 569.25 468.593 569.25 467.226L569.25 465.5 565.827 465.5 565.827 464.266 569.232 464.266ZM536.564 461.817C538.401 461.817 539.827 462.17 540.841 462.875 541.856 463.58 542.363 464.517 542.363 465.686 542.363 466.861 541.856 467.795 540.841 468.487 539.827 469.18 538.401 469.527 536.564 469.527 534.74 469.527 533.324 469.183 532.315 468.497 531.307 467.81 530.803 466.873 530.803 465.686 530.803 464.517 531.313 463.58 532.334 462.875 533.354 462.17 534.765 461.817 536.564 461.817ZM596.804 461.567 598.187 461.567 598.187 468.942 601.396 468.942 601.396 470.176 598.187 470.176 598.187 479.463 596.804 479.463ZM579.112 461.567 580.522 461.567 580.522 479.463 579.112 479.463ZM560.546 461.567 561.929 461.567 561.929 474.295 560.546 474.295 560.546 467.328 556.362 467.328 556.362 466.085 560.546 466.085Z" stroke="#404040" stroke-linejoin="round" stroke-miterlimit="10" stroke-opacity="0" fill-rule="evenodd"/><text fill="#000000" fill-opacity="0" font-family="Arial,Arial_MSFontService,sans-serif" font-size="17.896" x="528.261" y="477.226">유전체가</text><path d="M627.095 475.232 643.701 475.232 643.701 476.466 627.095 476.466ZM609.245 463.162 617.604 463.162C617.499 468.215 614.815 472.245 609.551 475.251L608.466 474.128C609.734 473.609 610.951 472.834 612.116 471.804 613.282 470.774 614.193 469.647 614.849 468.423L608.939 469.016 608.447 467.699 615.405 467.263C615.77 466.329 616.008 465.373 616.12 464.396L609.245 464.396ZM634.674 463.014 636.103 463.014 636.103 463.96C636.103 465.08 636.732 466.25 637.991 467.472 639.249 468.693 640.918 469.536 642.996 470L642.013 471.104C640.559 470.652 639.203 469.956 637.944 469.016 636.686 468.076 635.831 467.145 635.379 466.224 634.934 467.176 634.077 468.133 632.809 469.095 631.542 470.057 630.187 470.733 628.746 471.122L627.8 470.018C629.903 469.579 631.574 468.735 632.814 467.486 634.054 466.236 634.674 465.061 634.674 463.96ZM620.628 461.567 622.011 461.567 622.011 468.942 625.221 468.942 625.221 470.176 622.011 470.176 622.011 479.463 620.628 479.463Z" stroke="#404040" stroke-linejoin="round" stroke-miterlimit="10" stroke-opacity="0" fill-rule="evenodd"/><text fill="#000000" fill-opacity="0" font-family="Arial,Arial_MSFontService,sans-serif" font-size="17.896" x="608.447" y="477.226">카스</text><path d="M649.501 465.519C648.758 465.519 648.112 465.822 647.562 466.428 647.011 467.034 646.736 467.82 646.736 468.784 646.736 469.65 646.997 470.354 647.52 470.895 648.043 471.436 648.687 471.707 649.454 471.707 650.227 471.707 650.863 471.436 651.361 470.895 651.859 470.354 652.108 469.604 652.108 468.645 652.108 467.687 651.852 466.926 651.342 466.363 650.832 465.8 650.218 465.519 649.501 465.519ZM649.297 464.136C650.181 464.136 650.99 464.375 651.723 464.851 652.456 465.327 653.012 466.006 653.393 466.887 653.773 467.768 653.963 469.044 653.963 470.714 653.963 472.452 653.774 473.836 653.397 474.866 653.02 475.895 652.459 476.679 651.713 477.217 650.968 477.756 650.094 478.025 649.092 478.025 648.029 478.025 647.16 477.729 646.486 477.139 645.811 476.548 645.406 475.718 645.27 474.648L646.875 474.499C647.011 475.254 647.271 475.801 647.654 476.141 648.038 476.481 648.53 476.652 649.13 476.652 649.643 476.652 650.093 476.534 650.479 476.299 650.866 476.064 651.183 475.75 651.43 475.357 651.678 474.965 651.885 474.434 652.052 473.766 652.219 473.098 652.302 472.418 652.302 471.725 652.302 471.651 652.299 471.54 652.293 471.391 651.959 471.923 651.503 472.355 650.925 472.685 650.346 473.016 649.72 473.182 649.046 473.182 647.92 473.182 646.968 472.774 646.189 471.957 645.409 471.141 645.02 470.065 645.02 468.729 645.02 467.349 645.426 466.239 646.24 465.398 647.053 464.557 648.072 464.136 649.297 464.136Z" stroke="#404040" stroke-linejoin="round" stroke-miterlimit="10" stroke-opacity="0" fill-rule="evenodd"/><text fill="#000000" fill-opacity="0" font-family="Arial,Arial_MSFontService,sans-serif" font-size="13.8882" x="645.02" y="476.289">9</text><path d="M683.574 473.024 684.966 473.024 684.966 477.663 695.069 477.663 695.069 478.878 683.574 478.878ZM660.928 471.577 677.534 471.577 677.534 472.829 673.053 472.829 673.053 479.444 671.662 479.444 671.662 472.829 666.8 472.829 666.8 479.444 665.409 479.444 665.409 472.829 660.928 472.829ZM698.707 463.125 707.938 463.125 707.938 464.359 704.042 464.359 704.042 466.15C704.042 467.603 704.49 469.075 705.387 470.566 706.284 472.056 707.357 473.219 708.606 474.054L707.641 475.093C706.757 474.419 705.899 473.525 705.067 472.412 704.235 471.299 703.68 470.3 703.402 469.415 703.16 470.263 702.632 471.264 701.815 472.421 700.999 473.578 700.096 474.552 699.106 475.343L698.039 474.425C699.344 473.565 700.444 472.348 701.337 470.774 702.231 469.2 702.678 467.69 702.678 466.242L702.678 464.359 698.707 464.359ZM669.231 463.014C667.87 463.014 666.811 463.254 666.054 463.733 665.296 464.212 664.917 464.863 664.917 465.686 664.917 466.496 665.296 467.142 666.054 467.625 666.811 468.107 667.87 468.348 669.231 468.348 670.592 468.348 671.651 468.107 672.409 467.625 673.166 467.142 673.545 466.496 673.545 465.686 673.545 464.863 673.166 464.212 672.409 463.733 671.651 463.254 670.592 463.014 669.231 463.014ZM680.763 462.531 689.975 462.531 689.975 463.793 686.088 463.793 686.088 464.452C686.088 465.639 686.549 466.835 687.47 468.038 688.392 469.241 689.425 470.111 690.569 470.649L689.641 471.651C688.757 471.107 687.92 470.406 687.132 469.55 686.343 468.693 685.785 467.912 685.457 467.207 685.111 468.03 684.514 468.937 683.667 469.93 682.819 470.923 681.984 471.651 681.162 472.115L680.16 471.159C681.434 470.516 682.515 469.562 683.402 468.297 684.29 467.033 684.734 465.751 684.734 464.452L684.734 463.793 680.763 463.793ZM669.231 461.817C671.068 461.817 672.494 462.17 673.508 462.875 674.522 463.58 675.029 464.517 675.029 465.686 675.029 466.861 674.522 467.795 673.508 468.487 672.494 469.18 671.068 469.527 669.231 469.527 667.407 469.527 665.99 469.183 664.982 468.497 663.974 467.81 663.47 466.873 663.47 465.686 663.47 464.517 663.98 463.58 665.001 462.875 666.021 462.17 667.431 461.817 669.231 461.817ZM710.471 461.567 711.853 461.567 711.853 468.84 714.952 468.84 714.952 470.074 711.853 470.074 711.853 479.463 710.471 479.463ZM693.213 461.567 694.595 461.567 694.595 474.295 693.213 474.295 693.213 467.328 689.029 467.328 689.029 466.085 693.213 466.085Z" stroke="#404040" stroke-linejoin="round" stroke-miterlimit="10" stroke-opacity="0" fill-rule="evenodd"/><text fill="#000000" fill-opacity="0" font-family="Arial,Arial_MSFontService,sans-serif" font-size="17.896" x="660.928" y="477.226">유전자</text><path d="M541.063 493.974 541.138 495.171C540.296 495.226 538.453 495.288 535.608 495.356L535.608 501.952 534.217 501.952 534.217 495.375C531.458 495.424 529.68 495.449 528.882 495.449L528.743 494.234C533.957 494.234 538.064 494.147 541.063 493.974ZM551.215 487.016C550.38 487.016 549.743 487.427 549.304 488.25 548.864 489.072 548.645 490.269 548.645 491.84 548.645 493.411 548.864 494.609 549.304 495.435 549.743 496.261 550.38 496.674 551.215 496.674 552.043 496.674 552.677 496.259 553.117 495.43 553.556 494.602 553.775 493.405 553.775 491.84 553.775 490.275 553.556 489.08 553.117 488.254 552.677 487.429 552.043 487.016 551.215 487.016ZM534.792 486.255C533.833 486.255 533.065 486.49 532.486 486.96 531.908 487.43 531.619 488.046 531.619 488.806 531.619 489.567 531.908 490.178 532.486 490.639 533.065 491.099 533.833 491.33 534.792 491.33 535.757 491.33 536.524 491.098 537.093 490.634 537.662 490.17 537.946 489.561 537.946 488.806 537.946 488.052 537.66 487.438 537.088 486.965 536.516 486.492 535.75 486.255 534.792 486.255ZM510.754 486.162 519.113 486.162C518.977 491.24 516.293 495.263 511.06 498.232L509.993 497.11C511.868 496.336 513.547 495.084 515.031 493.352 516.516 491.62 517.381 489.635 517.629 487.396L510.754 487.396ZM534.792 485.058C536.153 485.058 537.249 485.412 538.081 486.121 538.913 486.829 539.328 487.724 539.328 488.806 539.328 489.883 538.914 490.772 538.085 491.474 537.257 492.176 536.159 492.527 534.792 492.527 533.425 492.527 532.323 492.174 531.484 491.469 530.646 490.764 530.227 489.876 530.227 488.806 530.227 487.73 530.646 486.836 531.484 486.125 532.323 485.414 533.425 485.058 534.792 485.058ZM557.273 484.928 558.664 484.928 558.664 501.915 557.273 501.915 557.273 492.415 555.13 492.415C555.062 494.178 554.691 495.537 554.016 496.493 553.342 497.448 552.408 497.926 551.215 497.926 549.959 497.926 548.993 497.402 548.316 496.353 547.638 495.305 547.3 493.801 547.3 491.84 547.3 489.879 547.641 488.376 548.325 487.331 549.008 486.286 549.972 485.763 551.215 485.763 552.402 485.763 553.331 486.23 554.003 487.164 554.674 488.098 555.043 489.437 555.111 491.181L557.273 491.181ZM560.483 484.567 561.874 484.567 561.874 502.463 560.483 502.463ZM542.232 484.567 543.624 484.567 543.624 502.463 542.232 502.463ZM522.138 484.567 523.52 484.567 523.52 491.942 526.73 491.942 526.73 493.176 523.52 493.176 523.52 502.463 522.138 502.463Z" stroke="#404040" stroke-linejoin="round" stroke-miterlimit="10" stroke-opacity="0" fill-rule="evenodd"/><text fill="#000000" fill-opacity="0" font-family="Arial,Arial_MSFontService,sans-serif" font-size="17.896" x="509.993" y="500.226">가위에</text><path d="M583.184 497.713 583.267 498.909C582.296 498.99 580.38 499.061 577.52 499.123 574.659 499.185 572.462 499.216 570.928 499.216L570.798 498.019C572.394 498.019 574.622 497.988 577.483 497.926 580.343 497.864 582.243 497.793 583.184 497.713ZM594.511 491.478C593.72 491.478 593.078 491.735 592.586 492.248 592.094 492.762 591.849 493.411 591.849 494.196 591.849 494.994 592.096 495.647 592.591 496.154 593.086 496.661 593.726 496.915 594.511 496.915 595.284 496.915 595.921 496.663 596.422 496.159 596.923 495.655 597.174 495.001 597.174 494.196 597.174 493.405 596.925 492.754 596.427 492.244 595.929 491.733 595.291 491.478 594.511 491.478ZM594.511 490.263C595.637 490.263 596.58 490.632 597.341 491.372 598.102 492.111 598.482 493.052 598.482 494.196 598.482 495.353 598.1 496.298 597.336 497.031 596.572 497.764 595.631 498.13 594.511 498.13 593.386 498.13 592.439 497.761 591.672 497.021 590.905 496.282 590.522 495.341 590.522 494.196 590.522 493.065 590.904 492.126 591.668 491.381 592.432 490.636 593.379 490.263 594.511 490.263ZM576.838 487.155C575.898 487.155 575.112 487.439 574.481 488.008 573.851 488.577 573.535 489.304 573.535 490.189 573.535 491.085 573.858 491.817 574.505 492.383 575.151 492.949 575.929 493.232 576.838 493.232 577.772 493.232 578.557 492.949 579.194 492.383 579.831 491.817 580.15 491.085 580.15 490.189 580.15 489.292 579.834 488.562 579.204 487.999 578.573 487.436 577.784 487.155 576.838 487.155ZM576.838 485.93C578.18 485.93 579.304 486.342 580.21 487.164 581.116 487.987 581.569 488.995 581.569 490.189 581.569 491.426 581.118 492.448 580.215 493.255 579.312 494.062 578.186 494.466 576.838 494.466 575.502 494.466 574.379 494.06 573.47 493.25 572.561 492.44 572.106 491.419 572.106 490.189 572.106 488.983 572.558 487.971 573.461 487.155 574.364 486.339 575.49 485.93 576.838 485.93ZM593.769 485.003 595.161 485.003 595.161 487.777 599.131 487.777 599.131 489.01 589.798 489.01 589.798 487.777 593.769 487.777ZM603.761 484.567 605.152 484.567 605.152 502.463 603.761 502.463 603.761 494.048 601.636 494.048 601.636 501.897 600.272 501.897 600.272 484.91 601.636 484.91 601.636 492.814 603.761 492.814ZM584.445 484.567 585.828 484.567 585.828 502.463 584.445 502.463Z" stroke="#404040" stroke-linejoin="round" stroke-miterlimit="10" stroke-opacity="0" fill-rule="evenodd"/><text fill="#000000" fill-opacity="0" font-family="Arial,Arial_MSFontService,sans-serif" font-size="17.896" x="570.798" y="500.226">의해</text><path d="M616.341 496.97 617.724 496.97 617.724 500.793 627.966 500.793 627.966 502.027 616.341 502.027ZM635.907 496.024 637.299 496.024 637.299 500.663 647.402 500.663 647.402 501.878 635.907 501.878ZM619.134 486.329C618.169 486.329 617.399 486.55 616.824 486.993 616.249 487.435 615.961 488.021 615.961 488.751 615.961 489.462 616.247 490.042 616.819 490.49 617.391 490.939 618.163 491.163 619.134 491.163 620.105 491.163 620.873 490.937 621.439 490.486 622.005 490.034 622.288 489.456 622.288 488.751 622.288 488.027 622.004 487.443 621.435 486.997 620.866 486.552 620.099 486.329 619.134 486.329ZM633.096 485.531 642.309 485.531 642.309 486.793 638.421 486.793 638.421 487.452C638.421 488.639 638.882 489.835 639.804 491.038 640.725 492.241 641.758 493.111 642.902 493.649L641.975 494.651C641.09 494.107 640.254 493.406 639.465 492.55 638.677 491.693 638.118 490.912 637.791 490.207 637.444 491.03 636.847 491.937 636 492.93 635.153 493.923 634.318 494.651 633.495 495.115L632.493 494.159C633.767 493.516 634.848 492.562 635.736 491.297 636.623 490.033 637.067 488.751 637.067 487.452L637.067 486.793 633.096 486.793ZM619.134 485.151C620.513 485.151 621.608 485.49 622.418 486.167 623.228 486.844 623.633 487.705 623.633 488.751 623.633 489.685 623.296 490.479 622.622 491.135 621.948 491.791 621.026 492.18 619.857 492.304L619.857 494.234C622.313 494.172 623.958 494.11 624.793 494.048L624.867 495.245C623.822 495.319 621.991 495.392 619.375 495.463 616.759 495.534 614.817 495.57 613.549 495.57L613.41 494.336C615.24 494.336 616.926 494.317 618.466 494.28L618.466 492.304C617.272 492.186 616.331 491.801 615.641 491.149 614.951 490.496 614.606 489.697 614.606 488.751 614.606 487.705 615.018 486.844 615.84 486.167 616.663 485.49 617.761 485.151 619.134 485.151ZM645.546 484.567 646.929 484.567 646.929 497.295 645.546 497.295 645.546 490.328 641.362 490.328 641.362 489.085 645.546 489.085ZM626.129 484.567 627.511 484.567 627.511 491.126 630.285 491.126 630.285 492.36 627.511 492.36 627.511 498.019 626.129 498.019Z" stroke="#404040" stroke-linejoin="round" stroke-miterlimit="10" stroke-opacity="0" fill-rule="evenodd"/><text fill="#000000" fill-opacity="0" font-family="Arial,Arial_MSFontService,sans-serif" font-size="17.46" x="613.41" y="499.844">완전</text><path d="M677.897 496.098 679.279 496.098 679.279 500.681 689.28 500.681 689.28 501.915 677.897 501.915ZM659.407 494.466 670.429 494.466 670.429 498.817 660.78 498.817 660.78 500.811 670.92 500.811 670.92 502.045 659.407 502.045 659.407 497.62 669.065 497.62 669.065 495.699 659.407 495.699ZM676.088 485.708 684.512 485.708 684.512 486.942 677.479 486.942 677.479 492.758C681.289 492.758 683.816 492.7 685.059 492.582L685.152 493.779C683.971 493.921 680.949 493.992 676.088 493.992ZM656.596 485.179 665.809 485.179 665.809 486.413 661.958 486.413 661.958 486.886C661.958 487.981 662.396 488.99 663.271 489.915 664.146 490.84 665.202 491.509 666.439 491.924L665.512 492.981C664.646 492.604 663.812 492.074 663.011 491.39 662.211 490.707 661.637 490.04 661.291 489.391 660.474 491.098 659.055 492.474 657.032 493.519L656.049 492.582C657.44 491.927 658.548 491.092 659.37 490.077 660.193 489.063 660.604 487.999 660.604 486.886L660.604 486.413 656.596 486.413ZM687.397 484.567 688.779 484.567 688.779 490.152 691.479 490.152 691.479 491.385 688.779 491.385 688.779 497.638 687.397 497.638ZM669.046 484.567 670.429 484.567 670.429 493.519 669.046 493.519 669.046 489.391 665.048 489.391 665.048 488.138 669.046 488.138Z" stroke="#404040" stroke-linejoin="round" stroke-miterlimit="10" stroke-opacity="0" fill-rule="evenodd"/><text fill="#000000" fill-opacity="0" font-family="Arial,Arial_MSFontService,sans-serif" font-size="17.4785" x="656.049" y="499.86">절단</text><rect x="480" y="389" width="115" height="10" fill="#BFBFBF" fill-opacity="0.811765"/><rect x="481" y="411" width="115" height="10" fill="#BFBFBF" fill-opacity="0.811765"/><path d="M634.194 388.818 636.444 388.818 641.132 396.467 641.132 388.818 643.28 388.818 643.28 400.271 640.96 400.271 636.343 392.803 636.343 400.271 634.194 400.271ZM663.46 388.623C664.882 388.623 665.992 388.921 666.792 389.518 667.591 390.114 668.106 390.938 668.335 391.99L666.038 392.42C665.876 391.857 665.573 391.413 665.128 391.088 664.682 390.762 664.126 390.6 663.46 390.6 662.449 390.6 661.646 390.92 661.05 391.561 660.453 392.201 660.155 393.152 660.155 394.412 660.155 395.771 660.457 396.791 661.061 397.471 661.665 398.15 662.457 398.49 663.436 398.49 663.921 398.49 664.406 398.395 664.893 398.205 665.38 398.015 665.798 397.785 666.147 397.514L666.147 396.061 663.499 396.061 663.499 394.131 668.483 394.131 668.483 398.693C667.999 399.162 667.297 399.575 666.378 399.932 665.458 400.288 664.527 400.467 663.585 400.467 662.387 400.467 661.343 400.215 660.452 399.713 659.561 399.21 658.892 398.492 658.444 397.557 657.996 396.622 657.772 395.605 657.772 394.506 657.772 393.313 658.022 392.253 658.522 391.326 659.022 390.399 659.754 389.688 660.718 389.193 661.452 388.813 662.366 388.623 663.46 388.623ZM651.46 388.623C652.882 388.623 653.992 388.921 654.792 389.518 655.591 390.114 656.106 390.938 656.335 391.99L654.038 392.42C653.876 391.857 653.573 391.413 653.128 391.088 652.682 390.762 652.126 390.6 651.46 390.6 650.449 390.6 649.646 390.92 649.05 391.561 648.453 392.201 648.155 393.152 648.155 394.412 648.155 395.771 648.457 396.791 649.061 397.471 649.665 398.15 650.457 398.49 651.436 398.49 651.921 398.49 652.406 398.395 652.893 398.205 653.38 398.015 653.798 397.785 654.147 397.514L654.147 396.061 651.499 396.061 651.499 394.131 656.483 394.131 656.483 398.693C655.999 399.162 655.297 399.575 654.378 399.932 653.458 400.288 652.527 400.467 651.585 400.467 650.387 400.467 649.343 400.215 648.452 399.713 647.561 399.21 646.892 398.492 646.444 397.557 645.996 396.622 645.772 395.605 645.772 394.506 645.772 393.313 646.022 392.253 646.522 391.326 647.022 390.399 647.754 389.688 648.718 389.193 649.452 388.813 650.366 388.623 651.46 388.623Z" stroke="#404040" stroke-linejoin="round" stroke-miterlimit="10" stroke-opacity="0" fill-rule="evenodd"/><text fill="#000000" fill-opacity="0" font-family="Arial,Arial_MSFontService,sans-serif" font-size="11.8438" x="634.194" y="398.986">NGG</text><path d="M593 439 600 427 607 439Z" fill="#FE2700" fill-rule="evenodd"/><path d="M607 375 600 387 593 375Z" fill="#FE2700" fill-rule="evenodd"/><path d="M0.146045-0.478195 54.8116 16.2172 54.5195 17.1736-0.146045 0.478195ZM54.5587 12.4803 61.0415 18.6426 52.222 20.1315Z" fill="#003E5C" transform="matrix(1 0 0 -1 752.5 394.143)"/><path d="M752.653 427.024 807.347 444.596 807.041 445.549 752.347 427.976ZM807.148 440.856 813.542 447.112 804.701 448.473Z" fill="#003E5C"/><rect x="859" y="356" width="236" height="9" fill="#BFBFBF" fill-opacity="0.811765"/><rect x="859" y="378" width="236" height="9" fill="#BFBFBF" fill-opacity="0.811765"/><path d="M1012.81 355.519 1015.06 355.519 1019.75 363.167 1019.75 355.519 1021.89 355.519 1021.89 366.972 1019.57 366.972 1014.96 359.503 1014.96 366.972 1012.81 366.972ZM1042.07 355.324C1043.5 355.324 1044.61 355.622 1045.41 356.218 1046.21 356.815 1046.72 357.639 1046.95 358.691L1044.65 359.121C1044.49 358.558 1044.19 358.114 1043.74 357.788 1043.3 357.463 1042.74 357.3 1042.07 357.3 1041.06 357.3 1040.26 357.621 1039.66 358.261 1039.07 358.902 1038.77 359.852 1038.77 361.113 1038.77 362.472 1039.07 363.492 1039.68 364.171 1040.28 364.851 1041.07 365.191 1042.05 365.191 1042.54 365.191 1043.02 365.096 1043.51 364.906 1044 364.716 1044.41 364.485 1044.76 364.214L1044.76 362.761 1042.11 362.761 1042.11 360.831 1047.1 360.831 1047.1 365.394C1046.61 365.863 1045.91 366.275 1044.99 366.632 1044.07 366.989 1043.14 367.167 1042.2 367.167 1041 367.167 1039.96 366.916 1039.07 366.413 1038.18 365.911 1037.51 365.192 1037.06 364.257 1036.61 363.322 1036.39 362.305 1036.39 361.206 1036.39 360.014 1036.64 358.954 1037.14 358.027 1037.64 357.1 1038.37 356.389 1039.33 355.894 1040.07 355.514 1040.98 355.324 1042.07 355.324ZM1030.07 355.324C1031.5 355.324 1032.61 355.622 1033.41 356.218 1034.21 356.815 1034.72 357.639 1034.95 358.691L1032.65 359.121C1032.49 358.558 1032.19 358.114 1031.74 357.788 1031.3 357.463 1030.74 357.3 1030.07 357.3 1029.06 357.3 1028.26 357.621 1027.66 358.261 1027.07 358.902 1026.77 359.852 1026.77 361.113 1026.77 362.472 1027.07 363.492 1027.68 364.171 1028.28 364.851 1029.07 365.191 1030.05 365.191 1030.54 365.191 1031.02 365.096 1031.51 364.906 1032 364.716 1032.41 364.485 1032.76 364.214L1032.76 362.761 1030.11 362.761 1030.11 360.831 1035.1 360.831 1035.1 365.394C1034.61 365.863 1033.91 366.275 1032.99 366.632 1032.07 366.989 1031.14 367.167 1030.2 367.167 1029 367.167 1027.96 366.916 1027.07 366.413 1026.18 365.911 1025.51 365.192 1025.06 364.257 1024.61 363.322 1024.39 362.305 1024.39 361.206 1024.39 360.014 1024.64 358.954 1025.14 358.027 1025.64 357.1 1026.37 356.389 1027.33 355.894 1028.07 355.514 1028.98 355.324 1030.07 355.324Z" stroke="#404040" stroke-linejoin="round" stroke-miterlimit="10" stroke-opacity="0" fill-rule="evenodd"/><text fill="#000000" fill-opacity="0" font-family="Arial,Arial_MSFontService,sans-serif" font-size="11.8438" x="1012.81" y="365.687">NGG</text><rect x="986" y="356" width="17" height="9" fill="#FF6E54" fill-opacity="0.811765"/><rect x="986" y="378" width="17" height="9" fill="#FF6E54" fill-opacity="0.811765"/><rect x="859" y="446" width="236" height="10" fill="#BFBFBF" fill-opacity="0.811765"/><rect x="859" y="468" width="236" height="10" fill="#BFBFBF" fill-opacity="0.811765"/><path d="M1012.81 445.877 1015.06 445.877 1019.75 453.525 1019.75 445.877 1021.89 445.877 1021.89 457.33 1019.57 457.33 1014.96 449.861 1014.96 457.33 1012.81 457.33ZM1042.07 445.681C1043.5 445.681 1044.61 445.98 1045.41 446.576 1046.21 447.172 1046.72 447.997 1046.95 449.049L1044.65 449.478C1044.49 448.916 1044.19 448.472 1043.74 448.146 1043.3 447.821 1042.74 447.658 1042.07 447.658 1041.06 447.658 1040.26 447.978 1039.66 448.619 1039.07 449.26 1038.77 450.21 1038.77 451.47 1038.77 452.83 1039.07 453.849 1039.68 454.529 1040.28 455.209 1041.07 455.549 1042.05 455.549 1042.54 455.549 1043.02 455.454 1043.51 455.263 1044 455.073 1044.41 454.843 1044.76 454.572L1044.76 453.119 1042.11 453.119 1042.11 451.189 1047.1 451.189 1047.1 455.752C1046.61 456.22 1045.91 456.633 1044.99 456.99 1044.07 457.347 1043.14 457.525 1042.2 457.525 1041 457.525 1039.96 457.274 1039.07 456.771 1038.18 456.269 1037.51 455.55 1037.06 454.615 1036.61 453.68 1036.39 452.663 1036.39 451.564 1036.39 450.372 1036.64 449.312 1037.14 448.385 1037.64 447.457 1038.37 446.747 1039.33 446.252 1040.07 445.872 1040.98 445.681 1042.07 445.681ZM1030.07 445.681C1031.5 445.681 1032.61 445.98 1033.41 446.576 1034.21 447.172 1034.72 447.997 1034.95 449.049L1032.65 449.478C1032.49 448.916 1032.19 448.472 1031.74 448.146 1031.3 447.821 1030.74 447.658 1030.07 447.658 1029.06 447.658 1028.26 447.978 1027.66 448.619 1027.07 449.26 1026.77 450.21 1026.77 451.47 1026.77 452.83 1027.07 453.849 1027.68 454.529 1028.28 455.209 1029.07 455.549 1030.05 455.549 1030.54 455.549 1031.02 455.454 1031.51 455.263 1032 455.073 1032.41 454.843 1032.76 454.572L1032.76 453.119 1030.11 453.119 1030.11 451.189 1035.1 451.189 1035.1 455.752C1034.61 456.22 1033.91 456.633 1032.99 456.99 1032.07 457.347 1031.14 457.525 1030.2 457.525 1029 457.525 1027.96 457.274 1027.07 456.771 1026.18 456.269 1025.51 455.55 1025.06 454.615 1024.61 453.68 1024.39 452.663 1024.39 451.564 1024.39 450.372 1024.64 449.312 1025.14 448.385 1025.64 447.457 1026.37 446.747 1027.33 446.252 1028.07 445.872 1028.98 445.681 1030.07 445.681Z" stroke="#404040" stroke-linejoin="round" stroke-miterlimit="10" stroke-opacity="0" fill-rule="evenodd"/><text fill="#000000" fill-opacity="0" font-family="Arial,Arial_MSFontService,sans-serif" font-size="11.8438" x="1012.81" y="456.045">NGG</text><rect x="973" y="446" width="30" height="10" fill="#0087C4" fill-opacity="0.811765"/><rect x="973" y="468" width="30" height="10" fill="#0087C4" fill-opacity="0.811765"/><path d="M798.097 360.483 799.612 360.483 799.612 368.288C799.612 369.246 799.497 369.988 799.265 370.514 799.033 371.04 798.666 371.441 798.163 371.717 797.661 371.993 797.071 372.131 796.394 372.131 795.388 372.131 794.619 371.842 794.085 371.264 793.551 370.686 793.295 369.827 793.316 368.686L794.683 368.498C794.719 369.373 794.883 369.972 795.175 370.295 795.467 370.618 795.87 370.78 796.386 370.78 796.766 370.78 797.094 370.692 797.37 370.518 797.646 370.344 797.836 370.107 797.941 369.807 798.045 369.508 798.097 369.03 798.097 368.373ZM783.12 360.483 791.401 360.483 791.401 361.834 784.636 361.834 784.636 365.342 790.972 365.342 790.972 366.686 784.636 366.686 784.636 370.584 791.667 370.584 791.667 371.936 783.12 371.936ZM772.136 360.483 773.651 360.483 773.651 365.186 779.605 365.186 779.605 360.483 781.12 360.483 781.12 371.936 779.605 371.936 779.605 366.538 773.651 366.538 773.651 371.936 772.136 371.936ZM760.073 360.483 761.628 360.483 767.644 369.475 767.644 360.483 769.097 360.483 769.097 371.936 767.542 371.936 761.526 362.936 761.526 371.936 760.073 371.936Z" stroke="#404040" stroke-linejoin="round" stroke-miterlimit="10" stroke-opacity="0" fill-rule="evenodd"/><text fill="#000000" fill-opacity="0" font-family="Arial,Arial_MSFontService,sans-serif" font-size="11.6484" x="760.073" y="370.675">NHEJ</text><path d="M777.188 464.36 777.188 473.11 779.633 473.11C780.388 473.11 780.981 473.04 781.411 472.899 781.84 472.759 782.183 472.561 782.438 472.306 782.797 471.946 783.077 471.463 783.278 470.856 783.478 470.25 783.579 469.514 783.579 468.649 783.579 467.451 783.382 466.531 782.989 465.888 782.595 465.244 782.118 464.813 781.555 464.595 781.149 464.438 780.495 464.36 779.594 464.36ZM788.211 464.274 788.211 468.063 791.469 468.063C792.162 468.063 792.704 467.992 793.094 467.849 793.485 467.705 793.782 467.476 793.985 467.161 794.188 466.846 794.289 466.503 794.289 466.134 794.289 465.592 794.093 465.147 793.7 464.798 793.306 464.449 792.685 464.274 791.836 464.274ZM786.696 463.009 791.774 463.009C792.795 463.009 793.571 463.112 794.102 463.317 794.633 463.523 795.058 463.886 795.375 464.407 795.693 464.928 795.852 465.503 795.852 466.134 795.852 466.946 795.589 467.631 795.063 468.188 794.537 468.746 793.724 469.1 792.625 469.251 793.026 469.444 793.331 469.634 793.539 469.821 793.982 470.227 794.401 470.735 794.797 471.345L796.789 474.462 794.883 474.462 793.368 472.079C792.925 471.392 792.56 470.865 792.274 470.501 791.987 470.136 791.731 469.881 791.504 469.735 791.278 469.589 791.047 469.488 790.813 469.431 790.641 469.394 790.36 469.376 789.969 469.376L788.211 469.376 788.211 474.462 786.696 474.462ZM775.672 463.009 779.618 463.009C780.508 463.009 781.188 463.063 781.657 463.173 782.313 463.324 782.873 463.597 783.336 463.993 783.941 464.503 784.392 465.156 784.692 465.95 784.991 466.744 785.141 467.652 785.141 468.673 785.141 469.543 785.039 470.313 784.836 470.985 784.633 471.657 784.373 472.213 784.055 472.653 783.737 473.093 783.39 473.44 783.012 473.692 782.635 473.945 782.179 474.136 781.645 474.267 781.111 474.397 780.498 474.462 779.805 474.462L775.672 474.462ZM763.719 463.009 765.235 463.009 765.235 467.712 771.188 467.712 771.188 463.009 772.704 463.009 772.704 474.462 771.188 474.462 771.188 469.063 765.235 469.063 765.235 474.462 763.719 474.462Z" stroke="#404040" stroke-linejoin="round" stroke-miterlimit="10" stroke-opacity="0" fill-rule="evenodd"/><text fill="#000000" fill-opacity="0" font-family="Arial,Arial_MSFontService,sans-serif" font-size="11.4531" x="763.719" y="473.03">HDR</text><path d="M1163.76 356.764 1173.42 356.764 1173.42 362.279 1172.26 362.279 1172.26 357.818 1163.76 357.818ZM1145.62 355.607 1159.6 355.607 1159.6 356.646 1153.21 356.646 1153.21 362.279 1152.02 362.279 1152.02 356.646 1145.62 356.646ZM1188.12 355.131 1188.18 356.139C1187.47 356.185 1185.92 356.238 1183.53 356.295L1183.53 361.85 1182.35 361.85 1182.35 356.31C1180.03 356.352 1178.53 356.373 1177.86 356.373L1177.74 355.35C1182.13 355.35 1185.59 355.277 1188.12 355.131ZM1149.09 348.795 1149.09 352.537 1156.12 352.537 1156.12 348.795ZM1182.84 348.631C1182.03 348.631 1181.38 348.829 1180.9 349.225 1180.41 349.62 1180.17 350.139 1180.17 350.779 1180.17 351.42 1180.41 351.934 1180.9 352.322 1181.38 352.71 1182.03 352.904 1182.84 352.904 1183.65 352.904 1184.3 352.709 1184.78 352.318 1185.25 351.928 1185.49 351.415 1185.49 350.779 1185.49 350.144 1185.25 349.627 1184.77 349.228 1184.29 348.83 1183.65 348.631 1182.84 348.631ZM1162.17 347.881 1169.94 347.881 1169.94 348.92 1166.61 348.92 1166.61 349.365C1166.61 350.36 1166.97 351.292 1167.7 352.162 1168.43 353.032 1169.32 353.691 1170.38 354.139L1169.59 355.014C1167.92 354.102 1166.75 352.961 1166.08 351.592 1165.8 352.232 1165.32 352.919 1164.64 353.65 1163.96 354.382 1163.24 354.961 1162.49 355.389L1161.65 354.6C1162.79 354.032 1163.71 353.274 1164.42 352.326 1165.14 351.378 1165.49 350.391 1165.49 349.365L1165.49 348.92 1162.17 348.92ZM1147.94 347.756 1157.27 347.756 1157.27 353.576 1147.94 353.576ZM1182.84 347.623C1183.98 347.623 1184.91 347.921 1185.61 348.517 1186.31 349.114 1186.66 349.868 1186.66 350.779 1186.66 351.685 1186.31 352.434 1185.61 353.025 1184.91 353.616 1183.99 353.912 1182.84 353.912 1181.69 353.912 1180.76 353.615 1180.05 353.021 1179.35 352.428 1178.99 351.68 1178.99 350.779 1178.99 349.873 1179.35 349.12 1180.05 348.521 1180.76 347.922 1181.69 347.623 1182.84 347.623ZM1189.1 347.209 1190.28 347.209 1190.28 362.279 1189.1 362.279ZM1172.26 347.209 1173.42 347.209 1173.42 351.334 1175.7 351.334 1175.7 352.396 1173.42 352.396 1173.42 355.928 1172.26 355.928Z" stroke="#404040" stroke-linejoin="round" stroke-miterlimit="10" stroke-opacity="0" fill-rule="evenodd"/><text fill="#000000" fill-opacity="0" font-family="Arial,Arial_MSFontService,sans-serif" font-size="15.0703" x="1145.62" y="360.395">무작위</text><path d="M1137.53 377.889 1137.53 379.842 1144.49 379.842 1144.49 377.889ZM1120.88 377.81 1120.88 379.842 1127.78 379.842 1127.78 377.81ZM1136.38 374.701 1137.53 374.701 1137.53 376.865 1144.49 376.865 1144.49 374.701 1145.65 374.701 1145.65 380.865 1136.38 380.865ZM1119.73 374.701 1120.88 374.701 1120.88 376.787 1127.78 376.787 1127.78 374.701 1128.92 374.701 1128.92 380.865 1119.73 380.865ZM1138.13 367.459C1137.32 367.459 1136.68 367.689 1136.19 368.15 1135.71 368.611 1135.47 369.211 1135.47 369.951 1135.47 370.696 1135.71 371.301 1136.19 371.767 1136.67 372.234 1137.31 372.467 1138.13 372.467 1138.94 372.467 1139.59 372.234 1140.06 371.767 1140.54 371.301 1140.78 370.696 1140.78 369.951 1140.78 369.211 1140.54 368.611 1140.06 368.15 1139.58 367.689 1138.93 367.459 1138.13 367.459ZM1120.99 366.639 1122.11 366.639 1122.11 368.146C1122.11 369.152 1122.48 370.115 1123.22 371.037 1123.97 371.959 1124.85 372.639 1125.88 373.076L1125.12 373.92C1124.47 373.576 1123.79 373.067 1123.07 372.392 1122.35 371.718 1121.86 371.097 1121.58 370.529 1121.3 371.18 1120.81 371.869 1120.12 372.596 1119.43 373.322 1118.72 373.891 1117.99 374.303L1117.13 373.506C1118.23 372.98 1119.15 372.221 1119.88 371.228 1120.62 370.236 1120.99 369.209 1120.99 368.146ZM1138.13 366.451C1139.25 366.451 1140.17 366.781 1140.88 367.439 1141.6 368.098 1141.96 368.935 1141.96 369.951 1141.96 370.972 1141.6 371.814 1140.88 372.478 1140.16 373.142 1139.25 373.475 1138.13 373.475 1137 373.475 1136.08 373.141 1135.37 372.475 1134.66 371.808 1134.31 370.967 1134.31 369.951 1134.31 368.941 1134.66 368.105 1135.37 367.443 1136.08 366.782 1137 366.451 1138.13 366.451ZM1144.48 366.209 1145.65 366.209 1145.65 373.873 1144.48 373.873ZM1127.76 366.209 1128.92 366.209 1128.92 370.1 1131.2 370.1 1131.2 371.17 1128.92 371.17 1128.92 373.873 1127.76 373.873Z" stroke="#404040" stroke-linejoin="round" stroke-miterlimit="10" stroke-opacity="0" fill-rule="evenodd"/><text fill="#000000" fill-opacity="0" font-family="Arial,Arial_MSFontService,sans-serif" font-size="14.6562" x="1117.13" y="379.033">삽입</text><path d="M1172.06 376.225 1173.24 376.225 1173.24 379.646 1181.57 379.646 1181.57 380.701 1172.06 380.701ZM1160.02 374.881 1161.21 374.881 1161.21 377.857 1167.6 377.857 1167.6 378.896 1153.62 378.896 1153.62 377.857 1160.02 377.857ZM1169.62 373.889 1183.6 373.889 1183.6 374.943 1169.62 374.943ZM1160.82 367.615 1166.02 367.615 1166.02 368.654 1161.97 368.654 1161.97 373.006 1166.21 373.006 1166.21 374.029 1160.82 374.029ZM1154.98 367.615 1159.91 367.615 1159.91 368.654 1156.15 368.654 1156.15 373.006 1160.12 373.006 1160.12 374.029 1154.98 374.029ZM1172.13 366.756 1173.3 366.756 1173.3 370.771 1181.54 370.771 1181.54 371.81 1172.13 371.81Z" stroke="#404040" stroke-linejoin="round" stroke-miterlimit="10" stroke-opacity="0" fill-rule="evenodd"/><text fill="#000000" fill-opacity="0" font-family="Arial,Arial_MSFontService,sans-serif" font-size="13.9453" x="1153.62" y="378.958">또는</text><path d="M1192.26 375.678 1201.92 375.678 1201.92 381.279 1200.76 381.279 1200.76 376.74 1192.26 376.74ZM1206.7 367.521 1213.51 367.521 1213.51 368.56 1210.67 368.56 1210.67 370.303C1210.67 371.558 1210.97 372.808 1211.58 374.053 1212.2 375.297 1212.93 376.277 1213.78 376.99L1212.9 377.748C1211.55 376.42 1210.61 374.85 1210.07 373.037 1209.9 373.777 1209.52 374.62 1208.94 375.568 1208.35 376.516 1207.72 377.31 1207.05 377.951L1206.13 377.217C1207.02 376.592 1207.8 375.603 1208.49 374.252 1209.17 372.9 1209.51 371.579 1209.51 370.287L1209.51 368.56 1206.7 368.56ZM1193.99 366.639 1195.11 366.639 1195.11 368.225C1195.11 369.23 1195.48 370.193 1196.22 371.115 1196.97 372.037 1197.85 372.717 1198.88 373.154L1198.12 373.998C1197.47 373.649 1196.78 373.139 1196.07 372.467 1195.35 371.795 1194.86 371.17 1194.58 370.592 1194.3 371.243 1193.82 371.934 1193.13 372.666 1192.45 373.398 1191.73 373.972 1190.99 374.389L1190.13 373.584C1191.24 373.047 1192.16 372.284 1192.9 371.295 1193.63 370.305 1193.99 369.282 1193.99 368.225ZM1214.97 366.514 1216.12 366.514 1216.12 380.818 1214.97 380.818 1214.97 372.435 1212.35 372.435 1212.35 371.396 1214.97 371.396ZM1217.71 366.209 1218.87 366.209 1218.87 381.279 1217.71 381.279ZM1200.76 366.209 1201.92 366.209 1201.92 370.334 1204.2 370.334 1204.2 371.396 1201.92 371.396 1201.92 374.865 1200.76 374.865Z" stroke="#404040" stroke-linejoin="round" stroke-miterlimit="10" stroke-opacity="0" fill-rule="evenodd"/><text fill="#000000" fill-opacity="0" font-family="Arial,Arial_MSFontService,sans-serif" font-size="15.0703" x="1190.13" y="379.395">삭제</text><path d="M1148.43 387.225 1149.44 387.225C1148.81 388.308 1148.39 389.081 1148.19 389.545 1147.87 390.264 1147.62 391.014 1147.44 391.795 1147.22 392.769 1147.11 393.748 1147.11 394.732 1147.11 397.238 1147.88 399.74 1149.44 402.24L1148.43 402.24C1147.66 401.261 1147 400.115 1146.46 398.803 1145.93 397.49 1145.66 396.131 1145.66 394.725 1145.66 393.485 1145.86 392.297 1146.26 391.162 1146.73 389.844 1147.45 388.532 1148.43 387.225Z" stroke="#404040" stroke-linejoin="round" stroke-miterlimit="10" stroke-opacity="0" fill-rule="evenodd"/><text fill="#000000" fill-opacity="0" font-family="Arial,Arial_MSFontService,sans-serif" font-size="15.0156" x="1145.66" y="400.363">(</text><path d="M1179.5 391.545C1178.86 391.545 1178.31 391.761 1177.87 392.193 1177.43 392.626 1177.19 393.204 1177.14 393.928L1181.77 393.928C1181.71 393.23 1181.54 392.706 1181.24 392.357 1180.8 391.816 1180.21 391.545 1179.5 391.545ZM1179.49 390.389C1180.6 390.389 1181.5 390.766 1182.2 391.521 1182.91 392.277 1183.26 393.339 1183.26 394.709 1183.26 394.792 1183.26 394.917 1183.25 395.084L1177.06 395.084C1177.12 395.995 1177.37 396.693 1177.84 397.178 1178.3 397.662 1178.88 397.904 1179.57 397.904 1180.09 397.904 1180.53 397.769 1180.89 397.498 1181.26 397.227 1181.55 396.795 1181.76 396.201L1183.21 396.381C1182.98 397.23 1182.56 397.889 1181.94 398.357 1181.32 398.826 1180.53 399.06 1179.56 399.06 1178.35 399.06 1177.39 398.687 1176.68 397.939 1175.97 397.192 1175.61 396.144 1175.61 394.795 1175.61 393.399 1175.97 392.316 1176.69 391.545 1177.41 390.774 1178.34 390.389 1179.49 390.389ZM1159.99 390.389C1160.49 390.389 1160.95 390.478 1161.36 390.658 1161.78 390.838 1162.1 391.073 1162.31 391.365 1162.51 391.657 1162.66 392.003 1162.74 392.404 1162.8 392.665 1162.82 393.12 1162.82 393.771L1162.82 398.873 1161.42 398.873 1161.42 393.826C1161.42 393.253 1161.36 392.825 1161.25 392.541 1161.14 392.257 1160.95 392.031 1160.67 391.861 1160.39 391.692 1160.06 391.607 1159.69 391.607 1159.09 391.607 1158.57 391.797 1158.14 392.178 1157.7 392.558 1157.49 393.279 1157.49 394.342L1157.49 398.873 1156.08 398.873 1156.08 390.576 1157.35 390.576 1157.35 391.756C1157.95 390.844 1158.83 390.389 1159.99 390.389ZM1165.77 388.771 1165.77 397.521 1168.22 397.521C1168.98 397.521 1169.57 397.451 1170 397.31 1170.43 397.17 1170.77 396.972 1171.02 396.717 1171.38 396.357 1171.66 395.874 1171.86 395.267 1172.07 394.661 1172.17 393.925 1172.17 393.06 1172.17 391.863 1171.97 390.942 1171.58 390.299 1171.18 389.656 1170.7 389.225 1170.14 389.006 1169.74 388.85 1169.08 388.771 1168.18 388.771ZM1185.05 387.42 1186.45 387.42 1186.45 398.873 1185.05 398.873ZM1164.26 387.42 1168.2 387.42C1169.1 387.42 1169.77 387.475 1170.24 387.584 1170.9 387.735 1171.46 388.008 1171.92 388.404 1172.53 388.915 1172.98 389.567 1173.28 390.361 1173.58 391.156 1173.73 392.063 1173.73 393.084 1173.73 393.954 1173.63 394.725 1173.42 395.396 1173.22 396.068 1172.96 396.624 1172.64 397.064 1172.32 397.504 1171.98 397.851 1171.6 398.103 1171.22 398.356 1170.77 398.547 1170.23 398.678 1169.7 398.808 1169.08 398.873 1168.39 398.873L1164.26 398.873ZM1151.52 387.42 1153.03 387.42 1153.03 398.873 1151.52 398.873Z" stroke="#404040" stroke-linejoin="round" stroke-miterlimit="10" stroke-opacity="0" fill-rule="evenodd"/><text fill="#000000" fill-opacity="0" font-family="Arial,Arial_MSFontService,sans-serif" font-size="11.6406" x="1151.52" y="397.605">InDel</text><path d="M1188.16 387.225 1189.17 387.225C1190.15 388.532 1190.87 389.844 1191.34 391.162 1191.74 392.297 1191.94 393.485 1191.94 394.725 1191.94 396.131 1191.67 397.49 1191.13 398.803 1190.59 400.115 1189.94 401.261 1189.17 402.24L1188.16 402.24C1189.72 399.74 1190.5 397.238 1190.5 394.732 1190.5 393.753 1190.38 392.782 1190.16 391.818 1189.98 391.037 1189.74 390.287 1189.42 389.568 1189.21 389.1 1188.8 388.318 1188.16 387.225Z" stroke="#404040" stroke-linejoin="round" stroke-miterlimit="10" stroke-opacity="0" fill-rule="evenodd"/><text fill="#000000" fill-opacity="0" font-family="Arial,Arial_MSFontService,sans-serif" font-size="15.0156" x="1188.16" y="400.363">)</text><path d="M1154.43 460.704 1164.14 460.704 1164.14 465.008 1162.99 465.008 1162.99 461.727 1154.43 461.727ZM1170.75 460.563 1171.9 460.563 1171.9 463.696 1180.39 463.696 1180.39 464.735 1170.75 464.735ZM1144.02 459.938C1142.83 459.938 1141.91 460.119 1141.28 460.481 1140.65 460.843 1140.34 461.303 1140.34 461.86 1140.34 462.422 1140.65 462.883 1141.29 463.243 1141.92 463.602 1142.83 463.782 1144.02 463.782 1145.2 463.782 1146.11 463.603 1146.74 463.247 1147.38 462.89 1147.7 462.428 1147.7 461.86 1147.7 461.297 1147.38 460.836 1146.75 460.477 1146.12 460.118 1145.21 459.938 1144.02 459.938ZM1144.02 458.946C1145.6 458.946 1146.81 459.215 1147.67 459.754 1148.52 460.294 1148.95 460.995 1148.95 461.86 1148.95 462.725 1148.52 463.429 1147.66 463.973 1146.81 464.517 1145.59 464.79 1144.02 464.79 1142.44 464.79 1141.23 464.517 1140.37 463.973 1139.52 463.429 1139.09 462.725 1139.09 461.86 1139.09 460.995 1139.52 460.294 1140.37 459.754 1141.22 459.215 1142.44 458.946 1144.02 458.946ZM1172.72 454.79C1171.93 454.79 1171.3 454.961 1170.85 455.305 1170.39 455.649 1170.16 456.089 1170.16 456.626 1170.16 457.167 1170.39 457.613 1170.85 457.961 1171.31 458.31 1171.93 458.485 1172.72 458.485 1173.51 458.485 1174.13 458.31 1174.59 457.961 1175.05 457.613 1175.28 457.167 1175.28 456.626 1175.28 456.089 1175.05 455.649 1174.6 455.305 1174.14 454.961 1173.51 454.79 1172.72 454.79ZM1157.07 453.86C1156.22 453.86 1155.57 453.98 1155.14 454.219 1154.7 454.459 1154.48 454.777 1154.48 455.172 1154.48 455.568 1154.71 455.886 1155.17 456.126 1155.62 456.365 1156.26 456.485 1157.07 456.485 1157.89 456.485 1158.52 456.366 1158.97 456.129 1159.42 455.892 1159.65 455.573 1159.65 455.172 1159.65 454.777 1159.43 454.459 1159 454.219 1158.57 453.98 1157.93 453.86 1157.07 453.86ZM1172.72 453.797C1173.86 453.797 1174.77 454.07 1175.43 454.614 1176.1 455.158 1176.43 455.829 1176.43 456.626 1176.43 457.417 1176.1 458.09 1175.43 458.645 1174.76 459.2 1173.85 459.477 1172.71 459.477 1171.57 459.477 1170.67 459.202 1170.01 458.653 1169.34 458.103 1169.01 457.428 1169.01 456.626 1169.01 455.834 1169.34 455.165 1170.01 454.618 1170.67 454.071 1171.58 453.797 1172.72 453.797ZM1157.07 452.899C1158.21 452.899 1159.12 453.11 1159.79 453.532 1160.46 453.954 1160.8 454.501 1160.8 455.172 1160.8 455.797 1160.52 456.31 1159.97 456.711 1159.42 457.113 1158.64 457.344 1157.64 457.407L1157.64 458.594C1159.41 458.573 1160.86 458.527 1161.99 458.454L1162.05 459.422C1159.6 459.584 1156.32 459.665 1152.21 459.665L1152.1 458.657C1153.67 458.657 1155.14 458.641 1156.48 458.61L1156.48 457.407C1155.45 457.334 1154.67 457.097 1154.14 456.696 1153.6 456.295 1153.33 455.787 1153.33 455.172 1153.33 454.475 1153.66 453.921 1154.32 453.512 1154.98 453.103 1155.9 452.899 1157.07 452.899ZM1136.81 450.61 1144.57 450.61 1144.57 451.649 1141.26 451.649 1141.26 452.032C1141.26 453.037 1141.64 454.001 1142.39 454.922 1143.15 455.844 1144.03 456.514 1145.03 456.93L1144.24 457.782C1143.55 457.412 1142.87 456.894 1142.18 456.227 1141.49 455.56 1141.01 454.935 1140.74 454.352 1140.44 455.014 1139.94 455.715 1139.25 456.458 1138.56 457.2 1137.86 457.769 1137.15 458.165L1136.32 457.36C1137.4 456.844 1138.3 456.097 1139.03 455.118 1139.76 454.139 1140.13 453.11 1140.13 452.032L1140.13 451.649 1136.81 451.649ZM1172.11 450.001 1173.3 450.001 1173.3 451.954 1177.18 451.954 1177.18 452.993 1168.22 452.993 1168.22 451.954 1172.11 451.954ZM1178.75 449.938 1179.92 449.938 1179.92 455.758 1182.19 455.758 1182.19 456.821 1179.92 456.821 1179.92 461.157 1178.75 461.157ZM1162.99 449.938 1164.14 449.938 1164.14 455.297 1166.4 455.297 1166.4 456.336 1164.14 456.336 1164.14 459.938 1162.99 459.938ZM1147.47 449.938 1148.64 449.938 1148.64 458.641 1147.47 458.641 1147.47 454.368 1143.96 454.368 1143.96 453.329 1147.47 453.329ZM1156.49 449.813 1157.65 449.813 1157.65 451.376 1161.5 451.376 1161.5 452.399 1152.63 452.399 1152.63 451.376 1156.49 451.376Z" stroke="#404040" stroke-linejoin="round" stroke-miterlimit="10" stroke-opacity="0" fill-rule="evenodd"/><text fill="#000000" fill-opacity="0" font-family="Arial,Arial_MSFontService,sans-serif" font-size="15.1953" x="1136.32" y="463.109">정확한</text><path d="M1136.94 478.586 1138.11 478.586 1138.11 482.493 1146.61 482.493 1146.61 483.516 1136.94 483.516ZM1117.86 477.368 1131.85 477.368 1131.85 478.422 1128.08 478.422 1128.08 483.993 1126.9 483.993 1126.9 478.422 1122.81 478.422 1122.81 483.993 1121.64 483.993 1121.64 478.422 1117.86 478.422ZM1150.52 470.251 1158.29 470.251 1158.29 471.29 1155.01 471.29 1155.01 472.797C1155.01 474.021 1155.39 475.261 1156.15 476.516 1156.9 477.771 1157.8 478.751 1158.86 479.454L1158.04 480.329C1157.3 479.761 1156.58 479.008 1155.88 478.071 1155.18 477.133 1154.71 476.292 1154.47 475.547 1154.27 476.261 1153.83 477.105 1153.14 478.079 1152.45 479.053 1151.69 479.873 1150.86 480.54L1149.96 479.766C1151.06 479.042 1151.98 478.017 1152.74 476.692 1153.49 475.366 1153.86 474.094 1153.86 472.876L1153.86 471.29 1150.52 471.29ZM1124.86 470.157C1123.71 470.157 1122.82 470.359 1122.18 470.762 1121.54 471.166 1121.22 471.714 1121.22 472.407 1121.22 473.089 1121.54 473.633 1122.18 474.04 1122.82 474.446 1123.71 474.649 1124.86 474.649 1126 474.649 1126.89 474.446 1127.53 474.04 1128.17 473.633 1128.49 473.089 1128.49 472.407 1128.49 471.714 1128.17 471.166 1127.53 470.762 1126.89 470.359 1126 470.157 1124.86 470.157ZM1134.57 469.751 1142.33 469.751 1142.33 470.813 1139.05 470.813 1139.05 471.368C1139.05 472.368 1139.44 473.374 1140.22 474.387 1140.99 475.4 1141.86 476.133 1142.83 476.586L1142.04 477.43C1141.3 476.972 1140.6 476.382 1139.93 475.661 1139.27 474.939 1138.8 474.282 1138.52 473.688 1138.23 474.381 1137.73 475.145 1137.01 475.981 1136.3 476.817 1135.6 477.43 1134.9 477.821L1134.06 477.016C1135.13 476.475 1136.04 475.671 1136.79 474.606 1137.54 473.541 1137.91 472.461 1137.91 471.368L1137.91 470.813 1134.57 470.813ZM1124.86 469.149C1126.4 469.149 1127.6 469.446 1128.46 470.04 1129.31 470.633 1129.74 471.422 1129.74 472.407 1129.74 473.396 1129.31 474.183 1128.46 474.766 1127.6 475.35 1126.4 475.641 1124.86 475.641 1123.32 475.641 1122.13 475.352 1121.28 474.774 1120.43 474.196 1120.01 473.407 1120.01 472.407 1120.01 471.422 1120.44 470.633 1121.29 470.04 1122.15 469.446 1123.34 469.149 1124.86 469.149ZM1160.43 468.938 1161.59 468.938 1161.59 475.063 1164.2 475.063 1164.2 476.102 1161.59 476.102 1161.59 484.008 1160.43 484.008ZM1145.05 468.938 1146.22 468.938 1146.22 479.657 1145.05 479.657 1145.05 473.79 1141.53 473.79 1141.53 472.743 1145.05 472.743Z" stroke="#404040" stroke-linejoin="round" stroke-miterlimit="10" stroke-opacity="0" fill-rule="evenodd"/><text fill="#000000" fill-opacity="0" font-family="Arial,Arial_MSFontService,sans-serif" font-size="15.0703" x="1117.86" y="482.125">유전자</text><path d="M1194.27 478.938C1193.08 478.938 1192.17 479.119 1191.54 479.481 1190.91 479.843 1190.59 480.303 1190.59 480.86 1190.59 481.422 1190.91 481.883 1191.54 482.243 1192.17 482.602 1193.08 482.782 1194.27 482.782 1195.45 482.782 1196.36 482.603 1197 482.247 1197.63 481.89 1197.95 481.428 1197.95 480.86 1197.95 480.297 1197.64 479.836 1197.01 479.477 1196.38 479.118 1195.46 478.938 1194.27 478.938ZM1194.27 477.946C1195.85 477.946 1197.07 478.215 1197.92 478.754 1198.77 479.294 1199.2 479.995 1199.2 480.86 1199.2 481.725 1198.77 482.429 1197.92 482.973 1197.06 483.517 1195.84 483.79 1194.27 483.79 1192.7 483.79 1191.48 483.517 1190.63 482.973 1189.77 482.429 1189.34 481.725 1189.34 480.86 1189.34 479.995 1189.77 479.294 1190.62 478.754 1191.48 478.215 1192.69 477.946 1194.27 477.946ZM1173.98 475.274 1175.13 475.274 1175.13 480.391 1177.8 480.391 1177.8 475.274 1178.96 475.274 1178.96 480.391 1184.35 480.391 1184.35 481.454 1170.36 481.454 1170.36 480.391 1173.98 480.391ZM1172.19 470.36 1182.35 470.36 1182.35 473.61C1182.35 475.084 1182.26 476.722 1182.08 478.524L1180.93 478.391C1181.07 476.896 1181.15 475.303 1181.15 473.61L1181.15 471.415 1172.19 471.415ZM1187.07 469.61 1194.83 469.61 1194.83 470.649 1191.51 470.649 1191.51 471.032C1191.51 472.037 1191.89 473.001 1192.65 473.922 1193.4 474.844 1194.28 475.514 1195.28 475.93L1194.49 476.782C1193.81 476.412 1193.12 475.894 1192.44 475.227 1191.75 474.56 1191.27 473.935 1190.99 473.352 1190.69 474.014 1190.2 474.715 1189.51 475.458 1188.81 476.2 1188.11 476.769 1187.4 477.165L1186.58 476.36C1187.65 475.844 1188.56 475.097 1189.29 474.118 1190.02 473.139 1190.38 472.11 1190.38 471.032L1190.38 470.649 1187.07 470.649ZM1197.72 468.938 1198.9 468.938 1198.9 477.641 1197.72 477.641 1197.72 473.368 1194.21 473.368 1194.21 472.329 1197.72 472.329Z" stroke="#404040" stroke-linejoin="round" stroke-miterlimit="10" stroke-opacity="0" fill-rule="evenodd"/><text fill="#000000" fill-opacity="0" font-family="Arial,Arial_MSFontService,sans-serif" font-size="14.8516" x="1170.36" y="481.933">교정</text></g></svg>